<?xml version="1.0" encoding="UTF-8"?>
<svg width="206px" height="39px" viewBox="0 0 206 39" version="1.1" xmlns="http://www.w3.org/2000/svg" xmlns:xlink="http://www.w3.org/1999/xlink">
    <!-- Generator: Sketch 62 (91390) - https://sketch.com -->
    <title>TPL logo_Green</title>
    <desc>Created with Sketch.</desc>
    <g id="WEBSITE" stroke="none" stroke-width="1" fill="none" fill-rule="evenodd">
        <g id="TPL-logo_Green" fill-rule="nonzero">
            <g id="Group-63">
                <polygon id="Path" fill="#FFFFFF" points="19.000329 12.0585366 23.5587135 13.4334089 25.1219512 17.669088 21.6586805 21.102439 16.0454284 19.6911843 15.0731707 15.0744473"></polygon>
                <polygon id="Path" fill="#91C742" points="25.1219512 13.2802514 26.5090841 17.4543603 30.0251096 19.0926829 32.1560976 16.6813772 31.1545122 12.940942 27.79983 11.0536585"></polygon>
                <polygon id="Path" fill="#FFFFFF" points="24.3139974 11.0536585 27.1317073 9.02410189 25.6016978 6.3371669 21.3209019 5.02439024 18.0878049 6.57675358 19.2693507 9.74088188"></polygon>
                <polygon id="Path" fill="#FFFFFF" points="26.383891 19.0926829 29.7457684 20.7260085 30.1463415 24.2773139 27.2416626 27.1317073 23.6931308 26.4485374 23.1121951 22.3554078"></polygon>
                <polygon id="Path" fill="#FFFFFF" points="22.4913003 21.7198607 23.1121951 26.1414635 19.8120691 29.1414634 15.4598159 27.795122 14.0682927 23.528223 17.4003618 20.097561"></polygon>
                <polygon id="Path" fill="#91C742" points="20.097561 30.1076663 23.440581 27.1317073 27.1317073 27.9296387 27.1317073 30.736648 24.1608008 33.1609756 20.7837703 32.8393603"></polygon>
                <polygon id="Path" fill="#FFFFFF" points="14.858282 37.1804878 17.0829268 36.5536418 16.3574041 35.2855161 12.9330245 34.1658537 11.0536585 34.8957992 12.5047039 36.5124019"></polygon>
                <polygon id="Path" fill="#FFFFFF" points="16.761345 35.1707317 19.0926829 33.562055 18.4250228 30.7109042 14.4792607 29.1414634 12.0585366 31.1948151 13.3646696 33.8563251"></polygon>
                <polygon id="Path" fill="#91C742" points="11.5573797 31.1512195 14.0682927 29.1576081 12.8138334 24.9495673 8.94275932 23.1121951 7.03414634 25.6786832 8.29658315 29.4075907"></polygon>
                <polygon id="Path" fill="#FFFFFF" points="4.92403992 29.1414634 6.02926829 27.51323 5.17331199 24.4238188 2.89320566 22.1073171 2.0097561 24.1052998 2.88037548 27.1100697"></polygon>
                <polygon id="Path" fill="#FFFFFF" points="2.4816721 21.3820936 4.89753575 23.1121951 7.03414634 20.5013905 6.36523785 16.0811793 3.8865964 15.0731707 2.0097561 17.7632804"></polygon>
                <polygon id="Path" fill="#FFFFFF" points="6.62946693 22.2094 11.0991281 24.1170732 15.0731707 20.4995122 13.9955413 15.3507085 9.42130008 14.0682927 6.02926829 17.4731811"></polygon>
                <polygon id="Path" fill="#91C742" points="14.90931 14.0682927 19.0926829 10.6623287 18.0678588 7.56165539 13.7458733 7.03414634 10.0487805 9.61146421 10.0487805 12.8159779"></polygon>
                <polygon id="Path" fill="#FFFFFF" points="18.3388777 7.03414634 21.102439 5.40327869 20.0101548 3.48000799 17.0392237 3.01463415 14.0682927 4.45605758 14.3454701 6.47405037"></polygon>
                <polygon id="Path" fill="#FFFFFF" points="8.67275669 8.03902439 12.0585366 5.78794673 11.8914681 4.0195122 8.95825343 4.0195122 6.02926829 5.91426348 6.02926829 7.87500113"></polygon>
                <polygon id="Path" fill="#91C742" points="2.97297254 9.04390244 5.02439024 6.66177133 4.9560652 5.02439024 3.88452859 5.20256012 2.20973183 7.37801419 2.0097561 8.72141499"></polygon>
                <polygon id="Path" fill="#91C742" points="1.55736847 10.0487805 3.01463415 10.3296849 3.01463415 13.4399895 1.34753762 16.0780488 -4.61186644e-13 15.3411835 -4.61186644e-13 12.4568238"></polygon>
                <polygon id="Path" fill="#FFFFFF" points="32.7496157 24.1170732 34.1658537 21.0909416 34.1658537 17.7980689 32.6593572 16.0780488 31.1512195 18.6879723 31.3235313 23.3099515"></polygon>
                <polygon id="Path" fill="#FFFFFF" points="33.1103094 16.4476368 35.1475098 18.0878049 36.1756098 16.1078229 35.7301701 13.6951447 33.3657511 11.0536585 32.1560976 12.4876729"></polygon>
                <polygon id="Path" fill="#FFFFFF" points="31.8540049 11.0536585 33.1609756 9.48929598 31.5582056 6.5119608 28.7974134 5.02439024 27.1317073 6.02707424 28.5792351 8.95833421"></polygon>
                <polygon id="Path" fill="#91C742" points="32.6456254 7.03414634 34.2345305 8.90270376 35.1707317 10.9847502 34.6251638 12.0585366 33.2323994 10.4964733 32.1560976 7.87330617"></polygon>
                <polygon id="Path" fill="#FFFFFF" points="22.0885065 4.96846954 25.4902414 6.02926829 27.1317073 5.3006046 25.3258969 3.62806727 23.1775369 3.01463415 21.102439 3.60264879"></polygon>
                <polygon id="Path" fill="#FFFFFF" points="12.0585366 3.01463415 14.4375765 3.01463415 17.0829268 1.15947468 16.7120649 -6.43929354e-15 14.2580635 0.165987954 12.1177167 1.49877358"></polygon>
                <polygon id="Path" fill="#FFFFFF" points="29.945763 33.2466187 31.1512195 33.1609756 31.0539092 34.1201774 28.2239661 36.1756098 27.1317073 36.1756098 27.4752723 35.3134699"></polygon>
                <polygon id="Path" fill="#FFFFFF" points="33.1609756 24.4831445 33.1609756 26.7518981 34.6682927 27.1317073 36.1598382 25.2872085 36.1756098 22.7780439 34.9183858 22.1073171"></polygon>
            </g>
            <g id="Group-62" transform="translate(48.000000, 4.000000)">
                <path d="M93.6746511,7.19763282 C93.1504682,7.18810216 92.6320879,7.30652198 92.1661177,7.54224515 C90.9904973,8.06407301 90.1343909,9.09902943 89.8559066,10.3350848 C89.7438441,10.80232 89.6662624,11.2780118 89.5800605,11.7515895 C89.2927209,13.3611897 89.005381,14.97079 88.7180414,16.5803904 C88.6900256,16.73684 88.6512349,16.8932899 88.6124439,17.0497397 C88.4941963,17.5644248 88.0760908,17.9613175 87.5478505,18.0603205 C87.1539896,18.1464652 86.7480433,17.9762731 86.5392881,17.6374833 C86.4752579,17.5270014 86.43561,17.4045512 86.4229154,17.2780717 C86.4132753,17.1181034 86.4241354,16.9575807 86.4552413,16.8002657 C87.0916986,13.2991736 87.7288744,9.79737688 88.3667685,6.29487538 C88.3882613,6.16896469 88.4185024,6.04464265 88.4572806,5.92277865 C88.6468831,5.39564788 89.1568343,5.04485578 89.7266036,5.04961983 C90.0612037,5.04891682 90.3677922,5.23281471 90.5196612,5.52531168 C90.5649173,5.60987913 90.5972429,5.70290331 90.648964,5.78112819 C90.7006852,5.85935307 90.7782669,5.92912122 90.8881744,5.88049493 C91.1273848,5.77689982 91.3622848,5.66907634 91.5993403,5.55913866 C92.6165124,5.10240052 93.7455326,4.94029294 94.8534622,5.09190356 C95.9021545,5.21961522 96.8686347,5.71433737 97.5752874,6.48515213 C97.730451,6.65217282 97.8683741,6.82976445 98.0256924,6.9904426 C98.0780363,7.02353536 98.1441563,7.02753945 98.2002513,7.00101351 C98.3855853,6.87204816 98.5601442,6.7303977 98.7368582,6.57817631 C99.5646853,5.89378765 100.546274,5.41193671 101.600917,5.17224263 C102.524968,4.95195318 103.49227,4.97823211 104.402479,5.24835332 C106.03385,5.7642147 107.033792,6.85090632 107.406615,8.49362885 C107.545101,9.08864032 107.559031,9.70503821 107.447561,10.3054862 C107.188955,11.6945064 106.949745,13.0835267 106.70407,14.4725468 C106.592007,15.1068027 106.488565,15.7410585 106.363572,16.3753143 C106.321425,16.6613588 106.258042,16.9440017 106.173928,17.2209888 C105.932563,17.9123275 105.077009,18.2273412 104.594278,18.00958 C104.280868,17.8964032 104.06583,17.6115229 104.046896,17.2844143 C104.04538,17.0606195 104.063405,16.8371085 104.100772,16.6163314 C104.44127,14.7220209 104.786795,12.8291196 105.13735,10.9376279 C105.223326,10.5295916 105.260214,10.1130695 105.247257,9.69660069 C105.184555,8.2812896 103.988774,7.16992414 102.544827,7.18494771 C102.022347,7.18616786 101.506817,7.30249162 101.036294,7.52533164 C99.8469732,8.03421471 98.9722641,9.06396338 98.6765168,10.3033721 C98.5752295,10.7071816 98.5127332,11.1215621 98.4373065,11.5317141 C98.1427833,13.1723225 97.8475419,14.8129307 97.551582,16.4535392 C97.512791,16.6649577 97.4718451,16.8954041 97.4115037,17.1131652 C97.233847,17.6824683 96.7036872,18.0755332 96.0969247,18.0878049 C95.835536,18.0633404 95.5844667,17.9754248 95.3663636,17.8319885 C95.2591944,17.7652943 95.1862455,17.6567916 95.1659442,17.5338883 C95.1896496,17.2146462 95.2068901,16.8996324 95.2629214,16.5782761 C95.6077289,14.6543668 95.9654669,12.7304576 96.3124295,10.8065483 C96.3708862,10.4909975 96.4047467,10.1715352 96.4137168,9.85093627 C96.4314564,9.13611432 96.1474099,8.44585508 95.6287788,7.94346251 C95.1101475,7.44106994 94.4030054,7.17117588 93.6746511,7.19763282 Z" id="Path" fill="#91C742"></path>
                <path d="M148.20634,6.37079468 C148.495418,6.22404969 148.78234,6.073112 149.069261,5.92846336 C150.233541,5.32846041 151.546814,5.0555136 152.8618,5.14023314 C155.127652,5.26375292 157.041007,6.81871171 157.566879,8.96398827 C157.885639,10.1745387 157.820213,11.450466 157.379194,12.6242276 C156.434295,15.2174212 154.613531,16.9657828 151.906115,17.8043257 C151.001443,18.0884672 150.04037,18.1603074 149.101621,18.0139614 C148.190646,17.8890522 147.327697,17.5397682 146.594834,16.9993246 C146.491283,16.9217595 146.379104,16.8525797 146.275553,16.7896889 C146.236401,16.7642601 146.188431,16.7550509 146.142269,16.7641011 C146.096107,16.7731514 146.055564,16.7997142 146.02962,16.8379051 C145.96906,17.0195431 145.897013,17.1973732 145.81389,17.3703798 C145.599146,17.7747387 145.184748,18.0426709 144.71798,18.0789484 C144.454573,18.0994692 144.194359,18.0118674 144.000468,17.8373966 C143.806578,17.6629258 143.69673,17.4175293 143.697561,17.1607441 C143.707472,17.0344401 143.72694,16.9090172 143.755822,16.7854962 C143.994564,15.439635 144.236182,14.0944727 144.480676,12.750009 C144.778384,11.123236 145.07753,9.49716172 145.378115,7.87178628 C145.779373,5.68318959 146.17416,3.49249654 146.577575,1.30389985 C146.610135,1.11661699 146.665162,0.933685793 146.741531,0.758847039 C146.974497,0.248738991 147.521428,-0.0552058531 148.092003,0.00835125213 C148.534571,0.0548299795 148.8722,0.414381338 148.879418,0.846894036 C148.875434,1.03686523 148.85523,1.22618727 148.819014,1.41291041 C148.547194,2.91390201 148.268901,4.41489361 147.997081,5.91588521 C147.989487,6.01077679 147.989487,6.10609818 147.997081,6.20098976 C147.949621,6.28274768 147.917261,6.37918012 147.997081,6.44626353 C148.076901,6.51334696 148.15025,6.43787811 148.20634,6.37079468 Z M155.463508,10.9995509 C155.441935,10.6725192 155.437621,10.4503054 155.409576,10.2301879 C155.206789,8.64953473 153.882205,7.18627755 151.699014,7.29528812 C151.013635,7.33672475 150.348184,7.53574974 149.757441,7.87597899 C148.66699,8.47277035 147.805451,9.39751532 147.302429,10.5110997 C146.93066,11.3290154 146.810046,12.2339048 146.955104,13.1168714 C147.188791,14.5803555 148.407741,15.7071924 149.923553,15.8610028 C150.737112,15.9542802 151.561087,15.8174338 152.296587,15.4668877 C154.229531,14.523527 155.308183,13.0099572 155.463508,10.9974545 L155.463508,10.9995509 Z" id="Shape" fill="#FFFFFF"></path>
                <path d="M59.5095787,17.9737294 C58.2880955,18.0141842 57.0902327,17.6410907 56.1220022,16.9186144 C55.9931436,16.8191366 55.8569916,16.7288622 55.7146215,16.648505 C55.6534634,16.6440986 55.594247,16.6703887 55.5577692,16.7181426 C55.4771643,17.0283465 55.3987383,17.3385502 55.3399185,17.6529745 C55.1220681,18.881128 54.9042174,20.1113919 54.6732959,21.3395457 C54.6275472,21.590663 54.5796201,21.8438904 54.514265,22.0907874 C54.3623546,22.6307966 53.8910372,23.0299626 53.3182653,23.1036976 C53.0356841,23.1414071 52.7507622,23.0523422 52.5442422,22.8617425 C52.3377221,22.6711428 52.2321094,22.3997788 52.2573329,22.1245511 C52.2943676,21.7742528 52.3597227,21.4260649 52.4228993,21.0799873 C52.8673145,18.65463 53.3131821,16.2299763 53.7605019,13.8060258 C54.217988,11.3187684 54.6769266,8.8308077 55.1373175,6.34214352 C55.1670976,6.15319098 55.2220172,5.96877037 55.3007055,5.79348382 C55.4992058,5.33775227 55.9577799,5.03940763 56.4683846,5.03380116 C56.953885,4.98828516 57.3908863,5.31968879 57.4617831,5.78715313 C57.4922822,5.9411999 57.4879252,6.10157735 57.5053534,6.25773435 C57.5053534,6.34425375 57.5728871,6.37168675 57.6513131,6.32737193 C57.9083768,6.18598654 58.1610836,6.03616023 58.4225042,5.90532601 C59.6984586,5.20922865 61.1661415,4.91427335 62.6226634,5.06123413 C64.9723415,5.28664047 66.8677162,7.02196383 67.2323815,9.28169343 C67.4388092,10.4573096 67.3053525,11.6653299 66.8467861,12.7720133 C66.0314832,14.8664815 64.3641868,16.5448436 62.2348893,17.4145184 C61.3775551,17.7856763 60.4486374,17.9762823 59.5095787,17.9737294 Z M61.2872394,7.19881814 C61.0579919,7.21779075 60.830233,7.2509191 60.605367,7.29807756 C58.5902491,7.78554061 57.2657177,9.05167839 56.612166,10.9382237 C56.3827685,11.6087796 56.3340263,12.3249868 56.4705631,13.0189101 C56.6388671,13.9464162 57.1970499,14.7646475 58.0118875,15.2783125 C58.8267252,15.7919776 59.825111,15.9549907 60.768755,15.7284451 C62.0651107,15.4255363 63.2070483,14.6838631 63.9885864,13.6372073 C64.6679307,12.7931655 65.0360489,11.7531371 65.0342884,10.6828859 C64.9885205,8.32364916 63.1890748,7.19256609 61.2872394,7.19881814 L61.2872394,7.19881814 Z" id="Shape" fill="#91C742"></path>
                <path d="M18.1205484,12.2847502 C16.7274117,12.2847502 15.3342748,12.2847502 13.9411381,12.2847502 C13.7819555,12.2882165 13.6236243,12.3087196 13.4689247,12.3458994 C13.4219171,12.3458994 13.3855929,12.4302432 13.3535421,12.4808495 C13.3363841,12.5088061 13.327502,12.5409455 13.3279015,12.5736276 C13.3341899,14.0643653 14.3456838,15.3685544 15.8022151,15.7639307 C16.5597594,15.9594346 17.3581133,15.9374889 18.1034547,15.700673 C18.9152032,15.4609801 19.6509516,15.0195317 20.2401674,14.4186475 C20.443155,14.2077881 20.6290492,13.9969287 20.8384471,13.7860694 C21.0722481,13.5584881 21.3905564,13.4357375 21.7187727,13.4465856 C21.9979613,13.4498983 22.2602433,13.5791826 22.4306209,13.797471 C22.6009982,14.0157591 22.6607123,14.2990171 22.5926882,14.5662492 C22.539984,14.7845154 22.4385091,14.9883966 22.2956852,15.1629815 C20.8576775,16.8498569 19.0564286,17.883068 16.80006,18.0707329 C16.1519954,18.1229833 15.4997462,18.0550409 14.8770185,17.8704166 C12.8599615,17.2863358 11.6441718,15.9494871 11.1847786,13.9357795 C10.9596696,12.865415 11.0252747,11.7553477 11.3749461,10.7180646 C12.1641864,8.19866315 14.1327451,6.20736542 16.665447,5.36645222 C17.8055161,4.97543375 19.0358839,4.91831326 20.2081168,5.20198187 C21.8217133,5.56255799 23.1401341,6.70565852 23.7101889,8.23835767 C24.0652731,9.13555582 24.1907679,10.1052989 24.0755668,11.0617655 C24.031979,11.6951089 23.5245676,12.2012273 22.8832812,12.2510127 C22.6254508,12.2742175 22.3664749,12.2826661 22.1076543,12.2763158 C20.778619,12.2763158 19.4517204,12.2763158 18.1226851,12.2763158 L18.1205484,12.2847502 Z M17.7850844,10.1065722 L20.7893026,10.1065722 C21.0157942,10.1065722 21.2422858,10.1065722 21.4687772,10.0918121 C21.5486234,10.0854302 21.6216201,10.044824 21.6684922,9.98071569 C21.7153645,9.9166074 21.7313993,9.83544294 21.7123625,9.75865418 C21.6482008,9.41336745 21.5160834,9.08383838 21.3234809,8.7887008 C20.6055453,7.56993329 19.1162564,6.99639564 17.7316666,7.25153554 C16.1774212,7.51685187 14.8272529,8.45960261 14.0565207,9.81769484 C14.0415636,9.84510655 14.015923,9.88095265 14.0244699,9.9041472 C14.0330167,9.92734172 14.0693409,10.045423 14.1078019,10.0538574 C14.2645126,10.0864313 14.4241432,10.1033851 14.5842888,10.1044637 C15.6526451,10.1086808 16.7188649,10.1065722 17.7850844,10.1065722 L17.7850844,10.1065722 Z" id="Shape" fill="#FFFFFF"></path>
                <path d="M115.714664,12.2623778 L111.72471,12.2623778 C111.498266,12.2592466 111.271881,12.2719516 111.047251,12.3003977 C110.97459,12.3109588 110.901929,12.4060088 110.850638,12.4799365 C110.82092,12.53647 110.808307,12.6002678 110.814308,12.6636997 C110.858939,14.3741297 112.213645,15.7698118 113.940876,15.8848363 C115.436842,15.9756619 116.663534,15.4433821 117.714984,14.435853 C117.928693,14.235192 118.108209,14.0134088 118.309096,13.8021868 C118.521242,13.5992377 118.798916,13.4765987 119.093409,13.4557824 C119.32211,13.4254164 119.553517,13.4877236 119.735034,13.6285416 C119.91655,13.7693599 120.032756,13.9767268 120.057239,14.2035086 C120.115665,14.4913203 120.045556,14.7900504 119.8649,15.0230503 C119.602491,15.3478751 119.321353,15.6574771 119.022885,15.9503152 C118.067757,16.8737784 116.884358,17.533605 115.590713,17.8639872 C114.460377,18.1794385 113.261351,18.1610822 112.141443,17.8111817 C110.365518,17.2408822 109.247818,16.0390284 108.73919,14.2837731 C108.412364,13.0670233 108.463747,11.7812063 108.886649,10.5937234 C109.722253,8.01047741 112.038863,5.80109453 114.74656,5.19911162 C115.758338,4.95390494 116.816583,4.96698813 117.821838,5.23713159 C119.501594,5.71238126 120.625705,6.76849162 121.241189,8.38222828 C121.554014,9.26241795 121.658559,10.2017641 121.546793,11.1281152 C121.479117,11.725348 120.992463,12.1912792 120.386351,12.2391433 C120.127763,12.2539289 119.869174,12.2623778 119.610586,12.2623778 L115.714664,12.2623778 Z M115.308616,10.1205859 L115.308616,10.1036882 C116.505389,10.1036882 117.700024,10.1036882 118.89466,10.1036882 C119.18103,10.1036882 119.283611,9.94949606 119.200264,9.67068293 C118.899248,8.4955641 117.963238,7.5826521 116.770388,7.30077126 C116.17307,7.14975686 115.546903,7.14975686 114.949584,7.30077126 C113.509207,7.62390073 112.270159,8.52553235 111.530234,9.78896728 C111.515275,9.81431394 111.511,9.85022169 111.498178,9.87768056 C111.463984,9.94738385 111.543057,10.0889026 111.619992,10.0889026 L115.308616,10.1205859 Z" id="Shape" fill="#91C742"></path>
                <path d="M128.626466,12.7309036 C128.613201,11.639681 128.873768,10.5613617 129.386252,9.58662962 C130.232004,7.85986603 131.681873,6.4707701 133.484697,5.6599776 C134.45163,5.21319203 135.516786,4.99617921 136.589913,5.02732692 C137.735206,5.04682334 138.844025,5.41626355 139.75459,6.08174475 C139.884301,6.18116458 140.020374,6.27272587 140.162012,6.35589339 C140.222047,6.36988476 140.285369,6.35313048 140.329385,6.31160784 C140.41087,6.13657446 140.452713,5.94467042 140.549613,5.7780724 C140.803061,5.27122335 141.368557,4.97833575 141.950264,5.05263294 C142.363522,5.1057265 142.676842,5.43602083 142.692432,5.83501097 C142.695086,6.05897584 142.67666,6.28271414 142.637375,6.50351188 C142.289415,8.39302864 141.937784,10.2818424 141.582483,12.1699533 C141.346105,13.4352547 141.111929,14.6942296 140.879955,15.946878 C140.816089,16.292727 140.75883,16.640685 140.677346,16.9844251 C140.571769,17.5034227 140.159422,17.9155834 139.622453,18.0388431 C139.394917,18.0988839 139.152365,18.0779057 138.939746,17.9797956 C138.684563,17.8865961 138.497927,17.6735722 138.446435,17.4167365 C138.408996,17.2311589 138.40239,17.0413638 138.362748,16.8557861 C138.322794,16.8100565 138.26171,16.7863434 138.19978,16.792521 C138.016382,16.8660937 137.838333,16.9513406 137.666828,17.0476902 C136.806323,17.5434042 135.853431,17.8742962 134.861122,18.0219724 C133.830856,18.1786208 132.775345,18.0543814 131.815368,17.6634703 C130.304604,17.0519079 129.355421,15.9447691 128.873121,14.4580401 C128.69316,13.8990461 128.609843,13.3156401 128.626466,12.7309036 Z M139.479305,10.6452651 C139.506607,10.1251964 139.397588,9.60685115 139.162176,9.13744764 C138.549942,7.84894904 137.499454,7.18466581 136.01732,7.15932665 C135.245117,7.15761297 134.48747,7.36051916 133.828253,7.74561608 C132.532765,8.44380905 131.571628,9.59708884 131.148077,10.9615905 C130.865945,11.7530138 130.837567,12.607171 131.066593,13.4141664 C131.390328,14.4938902 132.066428,15.280486 133.17858,15.6811648 C133.939625,15.9433006 134.769103,15.9610666 135.541627,15.7317769 C137.781346,15.1307587 139.479305,12.9628755 139.483709,10.6452651 L139.479305,10.6452651 Z" id="Shape" fill="#FFFFFF"></path>
                <path d="M51.2449402,9.41651277 C51.2758378,10.0328539 51.1131102,10.6198454 51.0142377,11.2131261 C50.734099,12.9049195 50.4292421,14.5904237 50.1305648,16.2801206 C50.0811286,16.5610381 50.0316923,16.8440517 49.9595978,17.11868 C49.8041401,17.6520626 49.3426768,18.0334469 48.7978459,18.0788303 C48.5622414,18.101482 48.3278626,18.0244404 48.1497869,17.8658092 C47.9717111,17.7071782 47.8656392,17.4809445 47.8564974,17.2402711 C47.8607012,16.986357 47.8855036,16.7332299 47.9306516,16.4834714 C48.2622865,14.5757489 48.6021607,12.6701229 48.9337956,10.7624005 C48.9864881,10.4818062 49.0229414,10.1983042 49.0429673,9.91335915 C49.1027028,8.87983481 48.6557166,7.93435919 47.4424687,7.49830836 C45.6462849,6.85261769 43.485509,7.82325009 42.7872219,9.50036869 C42.6505113,9.82046185 42.5496308,10.1551969 42.4864847,10.4982543 C42.1486702,12.3724343 41.8314542,14.2508073 41.5039393,16.1270835 C41.4503831,16.4415434 41.4009469,16.7560032 41.3288524,17.0641737 C41.1942731,17.6029213 40.7516404,18.0044613 40.2103573,18.0788303 C39.8931877,18.1229535 39.5753748,18.0025439 39.3637616,17.7580815 C39.238293,17.612293 39.1765641,17.4207923 39.1927944,17.2276927 C39.2076322,16.9744585 39.2379015,16.722406 39.2834275,16.4729893 C39.4880387,15.2836327 39.6940232,14.0956737 39.9013807,12.9091123 C40.2474346,10.9384979 40.5976081,8.96997995 40.9313026,6.99936557 C41.2588179,5.11260715 41.5801534,3.24681269 41.9097284,1.37053626 C41.9412762,1.18268495 41.9895381,0.998141313 42.0539174,0.819183522 C42.257197,0.30259578 42.7601916,-0.0257744722 43.3063024,0.00158819582 C43.7643216,0.0241062908 44.1228453,0.411219283 44.1178809,0.877882681 C44.1137479,1.06773807 44.0951536,1.25698135 44.062265,1.44391019 C43.8562808,2.63256802 43.6379373,3.81912943 43.4298931,5.00778724 C43.3578524,5.28086906 43.334825,5.56494103 43.3619183,5.84634653 C43.3763372,5.92810606 43.4154742,5.96793765 43.4916883,5.94278086 C43.6399529,5.90320627 43.7852081,5.8527609 43.9263153,5.79184017 C44.4019321,5.55226649 44.9039732,5.37139285 45.4217621,5.25306582 C46.4011944,5.02110528 47.4244236,5.0675181 48.3796976,5.38723532 C49.5970653,5.80651497 50.4972169,6.58847151 50.9648015,7.8316357 C51.1646464,8.33459161 51.260027,8.87420576 51.2449402,9.41651277 Z" id="Path" fill="#FFFFFF"></path>
                <path d="M7.24624322,1.77635684e-14 L12.4525162,1.77635684e-14 C12.7134769,1.77635684e-14 12.9765942,1.77635684e-14 13.2375549,0.0125786867 C13.5011819,0.0366909165 13.7412012,0.170447313 13.8958112,0.379407611 C14.0504213,0.588367909 14.1045136,0.852112741 14.0441604,1.10273172 C13.9427957,1.58701124 13.4295011,2.1509558 12.7997449,2.1509558 C12.4395759,2.1509558 12.0815638,2.1509558 11.721395,2.1509558 L8.57045685,2.1509558 C8.43889831,2.1509558 8.30949616,2.1509558 8.17793762,2.16982384 C8.05323932,2.205634 7.95181314,2.29421336 7.90188001,2.41091537 C7.84149233,2.69183942 7.78110488,2.97276347 7.72934398,3.24949462 C7.3095065,5.56397339 6.88966902,7.87984976 6.46983154,10.1971238 C6.07012321,12.3872133 5.66969593,14.5773027 5.26854968,16.7673923 C5.24066027,16.9241124 5.19732675,17.0778611 5.13914777,17.2265143 C4.96284769,17.6845573 4.54202412,18.0114888 4.04354436,18.0776724 C3.78140807,18.116283 3.51484833,18.043462 3.31178115,17.8777632 C3.10871398,17.7120646 2.98874774,17.4694883 2.98244805,17.2118392 C2.98614869,17.0528851 3.00273464,16.894462 3.03205233,16.7380419 C3.57985403,13.766676 4.12765574,10.7953103 4.67545745,7.82394447 C4.97308188,6.19710071 5.2599229,4.56816052 5.5489208,2.9392203 C5.56617435,2.84488014 5.58774142,2.75263641 5.60068146,2.65829625 C5.65675564,2.27254979 5.55323407,2.16353448 5.11758071,2.14885936 C4.95367169,2.14885936 4.78976243,2.14885936 4.62585318,2.14885936 C3.54750356,2.14885936 2.4691537,2.14885936 1.39080384,2.14885936 C1.16219362,2.14885936 0.933583413,2.14885936 0.704973444,2.12789486 C0.339130418,2.06821588 0.0563733802,1.78314675 0.0083593989,1.42558475 C-0.0725116088,0.727776127 0.44246104,0.0978254309 1.16003699,0.0167715822 C1.42099768,-0.00419289556 1.684115,0.00209645947 1.94507569,0.00209645947 L7.24624322,1.77635684e-14 Z" id="Path" fill="#FFFFFF"></path>
                <path d="M32.8615173,5.02439024 C34.3138386,5.02439024 35.4874316,5.36209224 36.5227083,6.13036424 C36.6726864,6.2434735 36.8128992,6.36915235 36.9418485,6.5060577 C37.1232534,6.69308178 37.2083866,6.95419821 37.172376,7.21312122 C37.0905381,7.84110506 36.572593,8.31912336 35.9442945,8.34653351 C35.7210646,8.3723319 35.4964188,8.31199938 35.3155839,8.17768252 C35.2149902,8.09747829 35.1164925,8.01727409 35.0158986,7.94129114 C34.1689217,7.29139305 33.0905533,7.0281073 32.0420978,7.21523186 C30.3087858,7.4485287 28.7887329,8.49758513 27.9470964,10.0413753 C27.5569052,10.7061858 27.345957,11.4621349 27.3351514,12.2343276 C27.2728703,14.0451933 28.5894686,15.6061935 30.373919,15.8371856 C31.4507306,16.006145 32.5527671,15.8101511 33.5069934,15.2799774 C33.7584777,15.1470072 33.9973877,14.9823774 34.2530632,14.85785 C34.5416421,14.7096432 34.8820583,14.7041887 35.175172,14.8430755 C35.5231367,15.0225558 35.7187351,15.4055022 35.6613749,15.7949728 C35.6032003,16.080433 35.4564171,16.3398735 35.2422345,16.5358066 C35.1732193,16.6019089 35.0981366,16.6612724 35.0179944,16.7131003 C33.2387436,17.8760613 31.3148892,18.40161 29.2129003,17.8950571 C27.2366534,17.4201638 25.9016913,16.1959941 25.3295648,14.2035524 C25.0444496,13.1472266 25.0531492,12.0322914 25.3547132,10.980609 C25.7573521,9.45419007 26.6145101,8.08857855 27.8108757,7.06748726 C28.9318823,6.05934897 30.3115914,5.38871216 31.7927092,5.13203274 C32.2181368,5.06871363 32.637277,5.05393918 32.8615173,5.02439024 Z" id="Path" fill="#FFFFFF"></path>
                <path d="M73.1362535,6.77259328 C73.1362535,6.84680153 73.2032595,6.87648484 73.2702655,6.83195988 C73.4463201,6.71605366 73.6177763,6.59308 73.7846342,6.46303886 C74.3597174,6.00203545 74.9944728,5.63415578 75.6686822,5.37111742 C76.230374,5.15064281 76.8228149,5.0344957 77.4206892,5.02763922 C77.539606,5.02831511 77.6582631,5.03966238 77.7754262,5.061563 C78.0787215,5.12599021 78.3137798,5.38477753 78.3666547,5.71247538 C78.415028,6.04977916 78.335393,6.39384795 78.1456462,6.66736159 C77.9558992,6.94087521 77.671956,7.12089167 77.3576249,7.16695715 C77.1231043,7.20300115 76.8807005,7.19664044 76.6461799,7.24116539 C75.8510569,7.41441062 75.118249,7.82772616 74.5335235,8.43273792 C73.9998354,8.94844265 73.5266396,9.53228934 73.124429,10.1713313 C73.008154,10.357912 72.8899084,10.5423725 72.7775751,10.7331938 C72.2494109,11.6385344 72.2513816,11.6385344 72.081896,12.6838107 L71.4591354,16.4705518 C71.4276032,16.6613731 71.3862172,16.8479539 71.346802,17.0366549 C71.2484742,17.5552152 70.8698383,17.9592236 70.3870412,18.0607287 C70.1226447,18.128947 69.8437442,18.0667598 69.6263272,17.8911098 C69.4444892,17.7677782 69.3348963,17.5520198 69.3365662,17.3207665 C69.3400963,17.0324886 69.3624873,16.7448343 69.4036311,16.4599508 C69.8477094,13.7743186 70.2957293,11.0886866 70.7476906,8.40305461 C70.8738192,7.64613044 71.0019188,6.88708602 71.1221353,6.1280416 C71.2310395,5.46916801 71.7757047,4.9982138 72.397218,5.02551898 C72.803608,5.03276099 73.1352798,5.37753998 73.1559612,5.81424671 C73.1559612,5.97326437 73.1441366,6.13440231 73.1362535,6.29342" id="Path" fill="#91C742"></path>
                <path d="M128.62071,1.06031554 C128.576778,1.33716461 128.524479,1.68951796 128.463812,2.0271899 C128.04542,4.37621221 127.627027,6.72453541 127.208635,9.07215949 C126.755376,11.6393053 126.301421,14.2071502 125.846767,16.7756942 C125.825483,16.9009038 125.794712,17.0243052 125.754721,17.1448264 C125.596313,17.6443824 125.164304,18.0072222 124.645981,18.0760459 C124.390517,18.1177547 124.129495,18.0473834 123.929351,17.8828433 C123.729207,17.7183032 123.609246,17.4754646 123.6,17.2161359 C123.600247,17.0572204 123.614246,16.8986261 123.641839,16.7421368 C124.029549,14.5497159 124.418654,12.3579943 124.809154,10.1669717 C125.227547,7.78998481 125.649426,5.41299795 126.074791,3.0360111 C126.191941,2.37954325 126.306999,1.72097806 126.436701,1.06660757 C126.553085,0.525570919 126.986463,0.110186119 127.530797,0.0179368988 C128.202317,-0.0953195385 128.670917,0.336732778 128.62071,1.06031554 Z" id="Path" fill="#FFFFFF"></path>
                <path d="M82.4792061,5.02680603 C82.7457829,5.00643529 83.0063777,5.11573857 83.1847486,5.32273736 C83.3631197,5.52973617 83.4391057,5.81103297 83.3904752,6.08432957 C83.3904752,6.18162173 83.361998,6.27468379 83.3457254,6.36986091 C82.7612656,9.77649671 82.1768057,13.1838374 81.5923458,16.5918833 C81.5666909,16.7818867 81.5286336,16.9698549 81.4784372,17.1544859 C81.3035874,17.6854803 80.8374938,18.0539782 80.298669,18.0872217 C79.8125378,18.105079 79.4041165,17.7106676 79.3853659,17.205247 C79.3901182,17.0454648 79.4071227,16.8863312 79.4362179,16.7293614 C80.024746,13.2902949 80.6146299,9.85122837 81.2058701,6.41216186 C81.2295137,6.25465677 81.2614289,6.09861503 81.3014719,5.94473647 C81.4605341,5.40517668 81.9365155,5.03419498 82.4792061,5.02680603 L82.4792061,5.02680603 Z" id="Path" fill="#91C742"></path>
            </g>
            <path d="M132.64878,6.1650292 C132.609394,6.45385599 132.543703,6.73973661 132.452282,7.02017091 C132.271024,7.52658704 131.779172,7.91246997 131.164127,8.0307929 C130.782567,8.12720313 130.368723,8.05678207 130.062289,7.84330034 C129.755856,7.62981863 129.597722,7.30176291 129.641266,6.96986845 C129.664927,6.69544525 129.724413,6.42402094 129.81866,6.16045625 C129.99615,5.57477119 130.586865,5.14173306 131.303314,5.0720941 C131.969224,4.9714892 132.629676,5.44021659 132.64878,6.1650292 Z" id="Path" fill="#91C742"></path>
            <path d="M196.956098,16.704295 C196.747051,16.9563209 196.497804,17.2465325 196.152075,16.9715952 C195.806345,16.6966578 195.975189,16.3758976 196.152075,16.0780488 L196.956098,16.704295 Z" id="Path" fill="#FFFFFF"></path>
            <g id="UX---Simplifying-Sol" transform="translate(60.000000, 27.000000)" fill="#FFFFFF">
                <path d="M2.96996363,9.40314501 C3.37966061,9.40314501 3.76067879,9.34373895 4.11301818,9.22492683 C4.46535757,9.10611471 4.77058182,8.90946016 5.02869092,8.63496319 C5.2868,8.36046622 5.4896,8.00198138 5.63709092,7.55950864 C5.78458182,7.11703593 5.85832727,6.57213895 5.85832727,5.92481774 L5.85832727,5.92481774 L5.85832727,1.19281774 L4.87505455,1.19281774 L4.87505455,5.94939956 C4.87505455,6.43284199 4.82589092,6.83844199 4.72756363,7.16619956 C4.62923637,7.49395713 4.49403637,7.75616319 4.32196363,7.95281774 C4.14989092,8.14947228 3.94913939,8.29081774 3.71970909,8.3768541 C3.49027879,8.46289046 3.24036363,8.50590864 2.96996363,8.50590864 C2.70775757,8.50590864 2.46193939,8.46289046 2.23250909,8.3768541 C2.00307879,8.29081774 1.80437576,8.14947228 1.6364,7.95281774 C1.46842424,7.75616319 1.33527273,7.49395713 1.23694545,7.16619956 C1.13861818,6.83844199 1.08945455,6.43284199 1.08945455,5.94939956 L1.08945455,5.94939956 L1.08945455,1.19281774 L0.0693090915,1.19281774 L0.0693090915,5.92481774 C0.0693090915,6.57213895 0.143054545,7.11703593 0.290545455,7.55950864 C0.438036366,8.00198138 0.640836366,8.36046622 0.898945451,8.63496319 C1.15705455,8.90946016 1.46432727,9.10611471 1.82076363,9.22492683 C2.1772,9.34373895 2.56026667,9.40314501 2.96996363,9.40314501 Z M8.07069092,9.2556541 L9.23832727,7.08016319 C9.33665455,6.88350864 9.43907879,6.68070864 9.5456,6.47176319 C9.65212121,6.26281774 9.76273939,6.03543593 9.87745455,5.78961774 L9.87745455,5.78961774 L9.92661818,5.78961774 C10.0577212,6.03543593 10.1785818,6.26281774 10.2892,6.47176319 C10.3998182,6.68070864 10.5083879,6.88350864 10.6149091,7.08016319 L10.6149091,7.08016319 L11.7948364,9.2556541 L12.9256,9.2556541 L10.5780364,5.13819956 L12.7781092,1.19281774 L11.6965091,1.19281774 L10.6272,3.25769046 C10.5288727,3.44615107 10.4366909,3.62846622 10.3506545,3.80463593 C10.2646182,3.98080562 10.1642424,4.18770258 10.0495273,4.42532683 L10.0495273,4.42532683 L10.0003636,4.42532683 C9.87745455,4.18770258 9.76888485,3.98080562 9.67465455,3.80463593 C9.58042424,3.62846622 9.48004849,3.44615107 9.37352727,3.25769046 L9.37352727,3.25769046 L8.27963637,1.19281774 L7.14887273,1.19281774 L9.33665455,5.08903593 L6.98909092,9.2556541 L8.07069092,9.2556541 Z M18.8989818,6.56394501 L18.8989818,5.78961774 L16.0720727,5.78961774 L16.0720727,6.56394501 L18.8989818,6.56394501 Z M25.1919273,9.40314501 C25.6180121,9.40314501 25.9990302,9.34373895 26.3349818,9.22492683 C26.6709333,9.10611471 26.9577212,8.94223593 27.1953455,8.73329046 C27.4329698,8.52434501 27.6152849,8.28057532 27.7422909,8.00198138 C27.869297,7.72338744 27.9328,7.42430864 27.9328,7.10474501 C27.9328,6.80976319 27.8897818,6.54960562 27.8037455,6.32427228 C27.7177092,6.09893895 27.6009455,5.9022844 27.4534545,5.73430864 C27.3059637,5.56633289 27.1297939,5.41884199 26.9249455,5.29183593 C26.720097,5.16482986 26.5029576,5.05216319 26.2735273,4.95383593 L26.2735273,4.95383593 L25.1304727,4.46219956 C24.9665939,4.39664803 24.8068121,4.32495107 24.6511273,4.24710864 C24.4954424,4.16926622 24.3520485,4.07913289 24.2209455,3.97670864 C24.0898424,3.8742844 23.9853698,3.75547228 23.9075273,3.62027228 C23.8296849,3.48507228 23.7907637,3.31914501 23.7907637,3.12249046 C23.7907637,2.75376319 23.9280121,2.46492683 24.2025092,2.25598138 C24.4770061,2.04703593 24.8395879,1.94256319 25.2902545,1.94256319 C25.6671757,1.94256319 26.0051757,2.01016319 26.3042545,2.14536319 C26.6033333,2.28056319 26.8757818,2.46697532 27.1216,2.70459956 L27.1216,2.70459956 L27.6746909,2.04089046 C27.3879031,1.74590864 27.0396606,1.50623593 26.6299637,1.32187228 C26.2202667,1.13750865 25.773697,1.04532683 25.2902545,1.04532683 C24.9215273,1.04532683 24.5835273,1.09858744 24.2762545,1.20510865 C23.9689818,1.31162986 23.7026788,1.46116925 23.4773455,1.65372683 C23.2520121,1.8462844 23.0758424,2.07366622 22.9488363,2.33587228 C22.8218302,2.59807834 22.7583273,2.88076925 22.7583273,3.18394501 C22.7583273,3.47892683 22.8074909,3.7390844 22.9058182,3.96441774 C23.0041455,4.18975107 23.1311515,4.38435713 23.2868363,4.54823593 C23.4425212,4.71211471 23.6186909,4.85141168 23.8153455,4.96612683 C24.012,5.08084199 24.2045576,5.17916925 24.3930182,5.26110864 L24.3930182,5.26110864 L25.5483637,5.76503593 C25.7368243,5.85516925 25.9129939,5.94120562 26.0768727,6.02314501 C26.2407515,6.1050844 26.382097,6.19726622 26.5009092,6.29969046 C26.6197212,6.40211471 26.7139515,6.5250238 26.7836,6.66841774 C26.8532485,6.81181168 26.8880727,6.98593289 26.8880727,7.19078138 C26.8880727,7.58409046 26.7405818,7.90160562 26.4456,8.14332683 C26.1506182,8.38504803 25.7368243,8.50590864 25.2042182,8.50590864 C24.7863273,8.50590864 24.3827757,8.41372683 23.9935637,8.22936319 C23.6043515,8.04499956 23.2663515,7.80122986 22.9795637,7.4980541 L22.9795637,7.4980541 L22.3650182,8.21092683 C22.7173576,8.5796541 23.1352485,8.87053895 23.6186909,9.08358138 C24.1021333,9.2966238 24.6265455,9.40314501 25.1919273,9.40314501 Z M29.9362182,2.05318138 C30.1328727,2.05318138 30.2988,1.99172683 30.434,1.86881774 C30.5692,1.74590864 30.6368,1.5902238 30.6368,1.40176319 C30.6368,1.20510865 30.5692,1.04737531 30.434,0.928563193 C30.2988,0.809751072 30.1328727,0.750345011 29.9362182,0.750345011 C29.7395637,0.750345011 29.5736363,0.809751072 29.4384363,0.928563193 C29.3032363,1.04737531 29.2356363,1.20510865 29.2356363,1.40176319 C29.2356363,1.5902238 29.3032363,1.74590864 29.4384363,1.86881774 C29.5736363,1.99172683 29.7395637,2.05318138 29.9362182,2.05318138 Z M30.4278545,9.2556541 L30.4278545,3.28227228 L29.42,3.28227228 L29.42,9.2556541 L30.4278545,9.2556541 Z M33.4514182,9.2556541 L33.4514182,4.9292541 C34.0004121,4.31470864 34.5002424,4.00743593 34.9509092,4.00743593 C35.3360243,4.00743593 35.6187151,4.1323935 35.7989818,4.38230864 C35.9792485,4.6322238 36.0693818,5.03987228 36.0693818,5.6052541 L36.0693818,5.6052541 L36.0693818,9.2556541 L37.0772363,9.2556541 L37.0772363,4.9292541 C37.6262302,4.31470864 38.1260606,4.00743593 38.5767273,4.00743593 C38.9536485,4.00743593 39.2322424,4.1323935 39.4125092,4.38230864 C39.5927757,4.6322238 39.6829092,5.03987228 39.6829092,5.6052541 L39.6829092,5.6052541 L39.6829092,9.2556541 L40.6907637,9.2556541 L40.6907637,5.4700541 C40.6907637,4.6998238 40.5412243,4.1180541 40.2421455,3.72474501 C39.9430667,3.33143593 39.4862545,3.13478138 38.8717092,3.13478138 C38.5029818,3.13478138 38.1608849,3.2392541 37.8454182,3.44819956 C37.5299515,3.65714501 37.2165333,3.93369046 36.9051637,4.27783593 C36.7822545,3.91730258 36.5917455,3.63666016 36.3336363,3.43590864 C36.0755273,3.23515713 35.7170424,3.13478138 35.2581818,3.13478138 C34.8976485,3.13478138 34.5637455,3.23106016 34.2564727,3.42361774 C33.9492,3.61617532 33.6644606,3.85584803 33.4022545,4.14263593 L33.4022545,4.14263593 L33.3653818,4.14263593 L33.2793455,3.28227228 L32.4435637,3.28227228 L32.4435637,9.2556541 L33.4514182,9.2556541 Z M43.6405818,11.7752905 L43.6405818,9.75958138 L43.616,8.7148541 C43.8945939,8.92789652 44.1711394,9.09587228 44.4456363,9.21878138 C44.7201333,9.34169046 44.9966788,9.40314501 45.2752727,9.40314501 C45.6194182,9.40314501 45.9471757,9.33144803 46.2585455,9.1880541 C46.5699151,9.04466016 46.8444121,8.83366622 47.0820363,8.55507228 C47.3196606,8.27647834 47.5081212,7.93847834 47.6474182,7.54107228 C47.7867151,7.14366622 47.8563637,6.69095107 47.8563637,6.18292683 C47.8563637,5.71587228 47.8051515,5.29593289 47.7027273,4.92310864 C47.6003031,4.5502844 47.4507637,4.23072077 47.2541092,3.96441774 C47.0574545,3.69811471 46.8116363,3.49326622 46.5166545,3.34987228 C46.2216727,3.20647834 45.8816243,3.13478138 45.4965092,3.13478138 C45.1441698,3.13478138 44.8061698,3.21672077 44.4825092,3.38059956 C44.1588485,3.54447834 43.8618182,3.74113289 43.5914182,3.97056319 L43.5914182,3.97056319 L43.5545455,3.97056319 L43.4685092,3.28227228 L42.6327273,3.28227228 L42.6327273,11.7752905 L43.6405818,11.7752905 Z M45.1032,8.55507228 C44.9065455,8.55507228 44.6812121,8.50795713 44.4272,8.41372683 C44.1731879,8.31949652 43.9109818,8.15766622 43.6405818,7.92823593 L43.6405818,7.92823593 L43.6405818,4.7940541 C43.9355637,4.53184803 44.2121092,4.33109652 44.4702182,4.19179956 C44.7283273,4.05250258 44.9843879,3.9828541 45.2384,3.9828541 C45.5169939,3.9828541 45.7566667,4.03611471 45.9574182,4.14263593 C46.1581698,4.24915713 46.3220485,4.39869652 46.4490545,4.5912541 C46.5760606,4.78381168 46.6682424,5.01529046 46.7256,5.28569046 C46.7829576,5.55609046 46.8116363,5.85516925 46.8116363,6.18292683 C46.8116363,6.5516541 46.7686182,6.88350864 46.6825818,7.17849046 C46.5965455,7.47347228 46.4777333,7.72133895 46.3261455,7.92209046 C46.1745576,8.12284199 45.9942909,8.27852683 45.7853455,8.38914501 C45.5764,8.49976319 45.3490182,8.55507228 45.1032,8.55507228 Z M50.5234909,9.40314501 C50.6627879,9.40314501 50.7775031,9.39495107 50.8676363,9.37856319 C50.9577698,9.36217532 51.0356121,9.3375935 51.1011637,9.30481774 L51.1011637,9.30481774 L50.9659637,8.54278138 C50.9086061,8.55916925 50.8655879,8.56736319 50.8369092,8.56736319 L50.8369092,8.56736319 L50.7447273,8.56736319 C50.6709818,8.56736319 50.6054302,8.53458744 50.5480727,8.46903593 C50.4907151,8.4034844 50.4620363,8.28876925 50.4620363,8.12489046 L50.4620363,8.12489046 L50.4620363,0.504526829 L49.4541818,0.504526829 L49.4541818,8.05114501 C49.4541818,8.49361774 49.5361212,8.82956925 49.7,9.05899956 C49.8638788,9.28842986 50.1383757,9.40314501 50.5234909,9.40314501 Z M53.1045818,2.05318138 C53.3012363,2.05318138 53.4671637,1.99172683 53.6023637,1.86881774 C53.7375637,1.74590864 53.8051637,1.5902238 53.8051637,1.40176319 C53.8051637,1.20510865 53.7375637,1.04737531 53.6023637,0.928563193 C53.4671637,0.809751072 53.3012363,0.750345011 53.1045818,0.750345011 C52.9079273,0.750345011 52.742,0.809751072 52.6068,0.928563193 C52.4716,1.04737531 52.404,1.20510865 52.404,1.40176319 C52.404,1.5902238 52.4716,1.74590864 52.6068,1.86881774 C52.742,1.99172683 52.9079273,2.05318138 53.1045818,2.05318138 Z M53.5962182,9.2556541 L53.5962182,3.28227228 L52.5883637,3.28227228 L52.5883637,9.2556541 L53.5962182,9.2556541 Z M56.7918545,9.2556541 L56.7918545,4.10576319 L58.0578182,4.10576319 L58.0578182,3.28227228 L56.7918545,3.28227228 L56.7918545,2.33587228 C56.7918545,1.56564199 57.0704485,1.18052683 57.6276363,1.18052683 C57.8570667,1.18052683 58.0824,1.22969047 58.3036363,1.32801774 L58.3036363,1.32801774 L58.5248727,0.553690466 C58.3855757,0.49633289 58.2319394,0.449217738 58.0639637,0.412345011 C57.8959879,0.375472284 57.7177698,0.357035921 57.5293092,0.357035921 C56.9311515,0.357035921 56.4907273,0.533205617 56.2080363,0.885545011 C55.9253455,1.2378844 55.784,1.72132683 55.784,2.33587228 L55.784,2.33587228 L55.784,3.28227228 L54.9728,3.34372683 L54.9728,4.10576319 L55.784,4.10576319 L55.784,9.2556541 L56.7918545,9.2556541 Z M59.2992,11.8244541 C59.6023757,11.8244541 59.8686788,11.7711935 60.0981092,11.6646723 C60.3275394,11.5581511 60.5323879,11.4127086 60.7126545,11.228345 C60.8929212,11.0439814 61.0486061,10.8247935 61.1797092,10.5707814 C61.3108121,10.3167693 61.4296243,10.0422723 61.5361455,9.74729046 L61.5361455,9.74729046 L63.7853818,3.28227228 L62.8021092,3.28227228 L61.7328,6.58852683 C61.6508606,6.85073289 61.5689212,7.12932683 61.4869818,7.42430864 C61.4050424,7.71929046 61.3190061,8.00198138 61.2288727,8.27238138 L61.2288727,8.27238138 L61.1797092,8.27238138 C61.0895757,7.99378744 60.993297,7.70904803 60.8908727,7.41816319 C60.7884485,7.12727834 60.6921698,6.85073289 60.6020363,6.58852683 L60.6020363,6.58852683 L59.3852363,3.28227228 L58.3405092,3.28227228 L60.7372363,9.26794501 L60.6020363,9.71041774 C60.4791273,10.079145 60.3091031,10.3843693 60.0919637,10.6260905 C59.8748243,10.8678117 59.5941818,10.9886723 59.2500363,10.9886723 C59.1762909,10.9886723 59.0984485,10.9784299 59.0165092,10.957945 L59.0165092,10.957945 L58.7952727,10.9026359 L58.5986182,11.701545 C58.6969455,11.7425147 58.8034667,11.773242 58.9181818,11.7937268 C59.032897,11.8142117 59.1599031,11.8244541 59.2992,11.8244541 Z M65.4569455,2.05318138 C65.6536,2.05318138 65.8195273,1.99172683 65.9547273,1.86881774 C66.0899273,1.74590864 66.1575273,1.5902238 66.1575273,1.40176319 C66.1575273,1.20510865 66.0899273,1.04737531 65.9547273,0.928563193 C65.8195273,0.809751072 65.6536,0.750345011 65.4569455,0.750345011 C65.2602909,0.750345011 65.0943637,0.809751072 64.9591637,0.928563193 C64.8239637,1.04737531 64.7563637,1.20510865 64.7563637,1.40176319 C64.7563637,1.5902238 64.8239637,1.74590864 64.9591637,1.86881774 C65.0943637,1.99172683 65.2602909,2.05318138 65.4569455,2.05318138 Z M65.9485818,9.2556541 L65.9485818,3.28227228 L64.9407273,3.28227228 L64.9407273,9.2556541 L65.9485818,9.2556541 Z M68.9721455,9.2556541 L68.9721455,4.9292541 C69.2753212,4.62607834 69.5457212,4.39664803 69.7833455,4.24096319 C70.0209698,4.08527834 70.2954667,4.00743593 70.6068363,4.00743593 C71.0001455,4.00743593 71.2869333,4.1323935 71.4672,4.38230864 C71.6474667,4.6322238 71.7376,5.03987228 71.7376,5.6052541 L71.7376,5.6052541 L71.7376,9.2556541 L72.7454545,9.2556541 L72.7454545,5.4700541 C72.7454545,4.6998238 72.6000121,4.1180541 72.3091273,3.72474501 C72.0182424,3.33143593 71.5573333,3.13478138 70.9264,3.13478138 C70.5085092,3.13478138 70.1418302,3.23106016 69.8263637,3.42361774 C69.510897,3.61617532 69.2097698,3.85584803 68.9229818,4.14263593 L68.9229818,4.14263593 L68.8861092,4.14263593 L68.8000727,3.28227228 L67.9642909,3.28227228 L67.9642909,9.2556541 L68.9721455,9.2556541 Z M76.7031273,12.0088177 C77.1701818,12.0088177 77.5901212,11.9535086 77.9629455,11.8428905 C78.3357698,11.7322723 78.6532849,11.5827329 78.9154909,11.3942723 C79.177697,11.2058117 79.3784485,10.9866238 79.5177455,10.7367086 C79.6570424,10.4867935 79.7266909,10.2225389 79.7266909,9.94394501 C79.7266909,9.44411471 79.5525698,9.08153289 79.2043273,8.85619956 C78.8560849,8.63086622 78.3337212,8.51819956 77.6372363,8.51819956 L77.6372363,8.51819956 L76.4818909,8.51819956 C76.0721939,8.51819956 75.7936,8.45674501 75.6461092,8.33383593 C75.4986182,8.21092683 75.4248727,8.05524199 75.4248727,7.86678138 C75.4248727,7.70290258 75.4617455,7.5656541 75.5354909,7.45503593 C75.6092363,7.34441774 75.6993698,7.24404199 75.8058909,7.15390864 C75.9451879,7.21946016 76.0926788,7.27067228 76.2483637,7.30754501 C76.4040485,7.34441774 76.5556363,7.3628541 76.7031273,7.3628541 C77.0063031,7.3628541 77.2910424,7.31369046 77.5573455,7.21536319 C77.8236485,7.11703593 78.0551273,6.97978744 78.2517818,6.80361774 C78.4484363,6.62744803 78.6041212,6.41030864 78.7188363,6.15219956 C78.8335515,5.89409046 78.8909092,5.6052541 78.8909092,5.28569046 C78.8909092,5.03167834 78.8437939,4.79815107 78.7495637,4.58510864 C78.6553333,4.37206622 78.5385698,4.19589652 78.3992727,4.05659956 L78.3992727,4.05659956 L79.6283637,4.05659956 L79.6283637,3.28227228 L77.5512,3.28227228 C77.4364849,3.24130258 77.3074302,3.20647834 77.1640363,3.17779956 C77.0206424,3.14912077 76.8670061,3.13478138 76.7031273,3.13478138 C76.3999515,3.13478138 76.1111151,3.18394501 75.8366182,3.28227228 C75.5621212,3.38059956 75.3224485,3.52194501 75.1176,3.70630864 C74.9127515,3.89067228 74.7509212,4.11395713 74.6321092,4.37616319 C74.513297,4.63836925 74.4538909,4.93335107 74.4538909,5.26110864 C74.4538909,5.62164199 74.5337818,5.93915713 74.6935637,6.2136541 C74.8533455,6.48815107 75.0315637,6.70733895 75.2282182,6.87121774 L75.2282182,6.87121774 L75.2282182,6.92038138 C75.0725333,7.02690258 74.9250424,7.1743935 74.7857455,7.3628541 C74.6464485,7.55131471 74.5768,7.77255107 74.5768,8.02656319 C74.5768,8.26418744 74.6280121,8.46289046 74.7304363,8.62267228 C74.8328606,8.7824541 74.9578182,8.90741168 75.1053092,8.99754501 L75.1053092,8.99754501 L75.1053092,9.04670864 C74.8349092,9.23516925 74.6218667,9.44411471 74.4661818,9.67354501 C74.310497,9.90297532 74.2326545,10.1446965 74.2326545,10.3987086 C74.2326545,10.6609147 74.2920606,10.890345 74.4108727,11.0869996 C74.5296849,11.2836541 74.6976606,11.4516299 74.9148,11.5909268 C75.1319394,11.7302238 75.392097,11.8346965 75.6952727,11.904345 C75.9984485,11.9739935 76.3344,12.0088177 76.7031273,12.0088177 Z M76.7031273,6.6868541 C76.5310545,6.6868541 76.3692243,6.65407834 76.2176363,6.58852683 C76.0660485,6.52297532 75.9308485,6.42874501 75.8120363,6.30583593 C75.6932243,6.18292683 75.6010424,6.03338744 75.5354909,5.85721774 C75.4699394,5.68104803 75.4371637,5.48234501 75.4371637,5.26110864 C75.4371637,4.81863593 75.5600727,4.47653895 75.8058909,4.23481774 C76.0517092,3.99309652 76.3507879,3.87223593 76.7031273,3.87223593 C77.0554667,3.87223593 77.3545455,3.99309652 77.6003637,4.23481774 C77.8461818,4.47653895 77.9690909,4.81863593 77.9690909,5.26110864 C77.9690909,5.48234501 77.9363151,5.68104803 77.8707637,5.85721774 C77.8052121,6.03338744 77.7130302,6.18292683 77.5942182,6.30583593 C77.4754061,6.42874501 77.3402061,6.52297532 77.1886182,6.58852683 C77.0370302,6.65407834 76.8752,6.6868541 76.7031273,6.6868541 Z M76.8506182,11.3082359 C76.3098182,11.3082359 75.8857818,11.2140056 75.5785092,11.025545 C75.2712363,10.8370844 75.1176,10.5830723 75.1176,10.2635086 C75.1176,10.0914359 75.1667637,9.91936319 75.2650909,9.74729046 C75.3634182,9.57521774 75.5191031,9.41133895 75.7321455,9.2556541 C75.8632485,9.2966238 75.9964,9.3232541 76.1316,9.33554501 C76.2668,9.34783593 76.3917576,9.35398138 76.5064727,9.35398138 L76.5064727,9.35398138 L77.5389092,9.35398138 C77.9322182,9.35398138 78.231297,9.40724199 78.4361455,9.51376319 C78.6409939,9.6202844 78.7434182,9.81284199 78.7434182,10.0914359 C78.7434182,10.2471208 78.6983515,10.3987086 78.6082182,10.5461996 C78.5180849,10.6936905 78.3910788,10.822745 78.2272,10.9333632 C78.0633212,11.0439814 77.8646182,11.1341147 77.6310909,11.2037632 C77.3975637,11.2734117 77.1374061,11.3082359 76.8506182,11.3082359 Z M85.6754909,9.40314501 C86.1015757,9.40314501 86.4825939,9.34373895 86.8185455,9.22492683 C87.154497,9.10611471 87.4412849,8.94223593 87.6789092,8.73329046 C87.9165333,8.52434501 88.0988485,8.28057532 88.2258545,8.00198138 C88.3528606,7.72338744 88.4163637,7.42430864 88.4163637,7.10474501 C88.4163637,6.80976319 88.3733455,6.54960562 88.2873092,6.32427228 C88.2012727,6.09893895 88.0845092,5.9022844 87.9370182,5.73430864 C87.7895273,5.56633289 87.6133576,5.41884199 87.4085092,5.29183593 C87.2036606,5.16482986 86.9865212,5.05216319 86.7570909,4.95383593 L86.7570909,4.95383593 L85.6140363,4.46219956 C85.4501576,4.39664803 85.2903757,4.32495107 85.1346909,4.24710864 C84.9790061,4.16926622 84.8356121,4.07913289 84.7045092,3.97670864 C84.5734061,3.8742844 84.4689333,3.75547228 84.3910909,3.62027228 C84.3132485,3.48507228 84.2743273,3.31914501 84.2743273,3.12249046 C84.2743273,2.75376319 84.4115757,2.46492683 84.6860727,2.25598138 C84.9605698,2.04703593 85.3231515,1.94256319 85.7738182,1.94256319 C86.1507394,1.94256319 86.4887394,2.01016319 86.7878182,2.14536319 C87.086897,2.28056319 87.3593455,2.46697532 87.6051637,2.70459956 L87.6051637,2.70459956 L88.1582545,2.04089046 C87.8714667,1.74590864 87.5232243,1.50623593 87.1135273,1.32187228 C86.7038302,1.13750865 86.2572606,1.04532683 85.7738182,1.04532683 C85.4050909,1.04532683 85.0670909,1.09858744 84.7598182,1.20510865 C84.4525455,1.31162986 84.1862424,1.46116925 83.9609092,1.65372683 C83.7355757,1.8462844 83.5594061,2.07366622 83.4324,2.33587228 C83.3053939,2.59807834 83.2418909,2.88076925 83.2418909,3.18394501 C83.2418909,3.47892683 83.2910545,3.7390844 83.3893818,3.96441774 C83.4877092,4.18975107 83.6147151,4.38435713 83.7704,4.54823593 C83.9260849,4.71211471 84.1022545,4.85141168 84.2989092,4.96612683 C84.4955637,5.08084199 84.6881212,5.17916925 84.8765818,5.26110864 L84.8765818,5.26110864 L86.0319273,5.76503593 C86.2203879,5.85516925 86.3965576,5.94120562 86.5604363,6.02314501 C86.7243151,6.1050844 86.8656606,6.19726622 86.9844727,6.29969046 C87.1032849,6.40211471 87.1975151,6.5250238 87.2671637,6.66841774 C87.3368121,6.81181168 87.3716363,6.98593289 87.3716363,7.19078138 C87.3716363,7.58409046 87.2241455,7.90160562 86.9291637,8.14332683 C86.6341818,8.38504803 86.2203879,8.50590864 85.6877818,8.50590864 C85.2698909,8.50590864 84.8663394,8.41372683 84.4771273,8.22936319 C84.0879151,8.04499956 83.7499151,7.80122986 83.4631273,7.4980541 L83.4631273,7.4980541 L82.8485818,8.21092683 C83.2009212,8.5796541 83.6188121,8.87053895 84.1022545,9.08358138 C84.585697,9.2966238 85.1101092,9.40314501 85.6754909,9.40314501 Z M92.2265455,9.40314501 C92.5952727,9.40314501 92.9455637,9.33349652 93.2774182,9.19419956 C93.6092727,9.05490258 93.9022061,8.85210258 94.1562182,8.58579956 C94.4102302,8.31949652 94.6130302,7.99173895 94.7646182,7.60252683 C94.9162061,7.21331471 94.992,6.77289046 94.992,6.2812541 C94.992,5.7814238 94.9162061,5.33690258 94.7646182,4.94769046 C94.6130302,4.55847834 94.4102302,4.22867228 94.1562182,3.95827228 C93.9022061,3.68787228 93.6092727,3.4830238 93.2774182,3.34372683 C92.9455637,3.20442986 92.5952727,3.13478138 92.2265455,3.13478138 C91.8578182,3.13478138 91.5075273,3.20442986 91.1756727,3.34372683 C90.8438182,3.4830238 90.5508849,3.68787228 90.2968727,3.95827228 C90.0428606,4.22867228 89.8400606,4.55847834 89.6884727,4.94769046 C89.5368849,5.33690258 89.4610909,5.7814238 89.4610909,6.2812541 C89.4610909,6.77289046 89.5368849,7.21331471 89.6884727,7.60252683 C89.8400606,7.99173895 90.0428606,8.31949652 90.2968727,8.58579956 C90.5508849,8.85210258 90.8438182,9.05490258 91.1756727,9.19419956 C91.5075273,9.33349652 91.8578182,9.40314501 92.2265455,9.40314501 Z M92.2265455,8.56736319 C91.9725333,8.56736319 91.7390061,8.5120541 91.5259637,8.40143593 C91.3129212,8.29081774 91.1306061,8.13513289 90.9790182,7.93438138 C90.8274302,7.73362986 90.7106667,7.49395713 90.6287273,7.21536319 C90.5467879,6.93676925 90.5058182,6.62539956 90.5058182,6.2812541 C90.5058182,5.93710864 90.5467879,5.62369046 90.6287273,5.34099956 C90.7106667,5.05830864 90.8274302,4.81453895 90.9790182,4.60969046 C91.1306061,4.40484199 91.3129212,4.24710864 91.5259637,4.13649046 C91.7390061,4.02587228 91.9725333,3.97056319 92.2265455,3.97056319 C92.4805576,3.97056319 92.7140849,4.02587228 92.9271273,4.13649046 C93.1401698,4.24710864 93.3224849,4.40484199 93.4740727,4.60969046 C93.6256606,4.81453895 93.7424243,5.05830864 93.8243637,5.34099956 C93.9063031,5.62369046 93.9472727,5.93710864 93.9472727,6.2812541 C93.9472727,6.62539956 93.9063031,6.93676925 93.8243637,7.21536319 C93.7424243,7.49395713 93.6256606,7.73362986 93.4740727,7.93438138 C93.3224849,8.13513289 93.1401698,8.29081774 92.9271273,8.40143593 C92.7140849,8.5120541 92.4805576,8.56736319 92.2265455,8.56736319 Z M97.6345455,9.40314501 C97.7738424,9.40314501 97.8885576,9.39495107 97.9786909,9.37856319 C98.0688243,9.36217532 98.1466667,9.3375935 98.2122182,9.30481774 L98.2122182,9.30481774 L98.0770182,8.54278138 C98.0196606,8.55916925 97.9766424,8.56736319 97.9479637,8.56736319 L97.9479637,8.56736319 L97.8557818,8.56736319 C97.7820363,8.56736319 97.7164849,8.53458744 97.6591273,8.46903593 C97.6017698,8.4034844 97.5730909,8.28876925 97.5730909,8.12489046 L97.5730909,8.12489046 L97.5730909,0.504526829 L96.5652363,0.504526829 L96.5652363,8.05114501 C96.5652363,8.49361774 96.6471757,8.82956925 96.8110545,9.05899956 C96.9749333,9.28842986 97.2494302,9.40314501 97.6345455,9.40314501 Z M101.444727,9.40314501 C101.862618,9.40314501 102.2252,9.30481774 102.532473,9.10816319 C102.839745,8.91150864 103.132679,8.64930258 103.411273,8.32154501 L103.411273,8.32154501 L103.448145,8.32154501 L103.534182,9.2556541 L104.369964,9.2556541 L104.369964,3.28227228 L103.362109,3.28227228 L103.362109,7.52263593 C103.075321,7.87497532 102.813115,8.13103593 102.575491,8.29081774 C102.337867,8.45059956 102.06337,8.53049046 101.752,8.53049046 C101.358691,8.53049046 101.073951,8.40553289 100.897782,8.15561774 C100.721612,7.90570258 100.633527,7.4980541 100.633527,6.93267228 L100.633527,6.93267228 L100.633527,3.28227228 L99.6133818,3.28227228 L99.6133818,7.06787228 C99.6133818,7.83810258 99.7588243,8.41987228 100.049709,8.81318138 C100.340594,9.20649046 100.8056,9.40314501 101.444727,9.40314501 Z M108.266182,9.40314501 C108.454642,9.40314501 108.645151,9.38061168 108.837709,9.33554501 C109.030267,9.29047834 109.208485,9.23926622 109.372364,9.18190864 L109.372364,9.18190864 L109.175709,8.41987228 C109.077382,8.46084199 108.966764,8.49771471 108.843855,8.53049046 C108.720945,8.56326622 108.60623,8.5796541 108.499709,8.5796541 C108.155564,8.5796541 107.915891,8.47927834 107.780691,8.27852683 C107.645491,8.07777532 107.577891,7.79303593 107.577891,7.42430864 L107.577891,7.42430864 L107.577891,4.10576319 L109.188,4.10576319 L109.188,3.28227228 L107.577891,3.28227228 L107.577891,1.61070864 L106.729818,1.61070864 L106.606909,3.28227228 L105.6728,3.34372683 L105.6728,4.10576319 L106.557745,4.10576319 L106.557745,7.41201774 C106.557745,7.70699956 106.586424,7.97739956 106.643782,8.22321774 C106.701139,8.46903593 106.797418,8.67798138 106.932618,8.8500541 C107.067818,9.02212683 107.243988,9.15732683 107.461127,9.2556541 C107.678267,9.35398138 107.946618,9.40314501 108.266182,9.40314501 Z M111.056218,2.05318138 C111.252873,2.05318138 111.4188,1.99172683 111.554,1.86881774 C111.6892,1.74590864 111.7568,1.5902238 111.7568,1.40176319 C111.7568,1.20510865 111.6892,1.04737531 111.554,0.928563193 C111.4188,0.809751072 111.252873,0.750345011 111.056218,0.750345011 C110.859564,0.750345011 110.693636,0.809751072 110.558436,0.928563193 C110.423236,1.04737531 110.355636,1.20510865 110.355636,1.40176319 C110.355636,1.5902238 110.423236,1.74590864 110.558436,1.86881774 C110.693636,1.99172683 110.859564,2.05318138 111.056218,2.05318138 Z M111.547855,9.2556541 L111.547855,3.28227228 L110.54,3.28227228 L110.54,9.2556541 L111.547855,9.2556541 Z M115.886545,9.40314501 C116.255273,9.40314501 116.605564,9.33349652 116.937418,9.19419956 C117.269273,9.05490258 117.562206,8.85210258 117.816218,8.58579956 C118.07023,8.31949652 118.27303,7.99173895 118.424618,7.60252683 C118.576206,7.21331471 118.652,6.77289046 118.652,6.2812541 C118.652,5.7814238 118.576206,5.33690258 118.424618,4.94769046 C118.27303,4.55847834 118.07023,4.22867228 117.816218,3.95827228 C117.562206,3.68787228 117.269273,3.4830238 116.937418,3.34372683 C116.605564,3.20442986 116.255273,3.13478138 115.886545,3.13478138 C115.517818,3.13478138 115.167527,3.20442986 114.835673,3.34372683 C114.503818,3.4830238 114.210885,3.68787228 113.956873,3.95827228 C113.702861,4.22867228 113.500061,4.55847834 113.348473,4.94769046 C113.196885,5.33690258 113.121091,5.7814238 113.121091,6.2812541 C113.121091,6.77289046 113.196885,7.21331471 113.348473,7.60252683 C113.500061,7.99173895 113.702861,8.31949652 113.956873,8.58579956 C114.210885,8.85210258 114.503818,9.05490258 114.835673,9.19419956 C115.167527,9.33349652 115.517818,9.40314501 115.886545,9.40314501 Z M115.886545,8.56736319 C115.632533,8.56736319 115.399006,8.5120541 115.185964,8.40143593 C114.972921,8.29081774 114.790606,8.13513289 114.639018,7.93438138 C114.48743,7.73362986 114.370667,7.49395713 114.288727,7.21536319 C114.206788,6.93676925 114.165818,6.62539956 114.165818,6.2812541 C114.165818,5.93710864 114.206788,5.62369046 114.288727,5.34099956 C114.370667,5.05830864 114.48743,4.81453895 114.639018,4.60969046 C114.790606,4.40484199 114.972921,4.24710864 115.185964,4.13649046 C115.399006,4.02587228 115.632533,3.97056319 115.886545,3.97056319 C116.140558,3.97056319 116.374085,4.02587228 116.587127,4.13649046 C116.80017,4.24710864 116.982485,4.40484199 117.134073,4.60969046 C117.285661,4.81453895 117.402424,5.05830864 117.484364,5.34099956 C117.566303,5.62369046 117.607273,5.93710864 117.607273,6.2812541 C117.607273,6.62539956 117.566303,6.93676925 117.484364,7.21536319 C117.402424,7.49395713 117.285661,7.73362986 117.134073,7.93438138 C116.982485,8.13513289 116.80017,8.29081774 116.587127,8.40143593 C116.374085,8.5120541 116.140558,8.56736319 115.886545,8.56736319 Z M121.233091,9.2556541 L121.233091,4.9292541 C121.536267,4.62607834 121.806667,4.39664803 122.044291,4.24096319 C122.281915,4.08527834 122.556412,4.00743593 122.867782,4.00743593 C123.261091,4.00743593 123.547879,4.1323935 123.728145,4.38230864 C123.908412,4.6322238 123.998545,5.03987228 123.998545,5.6052541 L123.998545,5.6052541 L123.998545,9.2556541 L125.0064,9.2556541 L125.0064,5.4700541 C125.0064,4.6998238 124.860958,4.1180541 124.570073,3.72474501 C124.279188,3.33143593 123.818279,3.13478138 123.187345,3.13478138 C122.769455,3.13478138 122.402776,3.23106016 122.087309,3.42361774 C121.771842,3.61617532 121.470715,3.85584803 121.183927,4.14263593 L121.183927,4.14263593 L121.147055,4.14263593 L121.061018,3.28227228 L120.225236,3.28227228 L120.225236,9.2556541 L121.233091,9.2556541 Z M128.509309,9.40314501 C128.861649,9.40314501 129.175067,9.35602986 129.449563,9.26179956 C129.724061,9.16756925 129.953492,9.03851471 130.137855,8.87463593 C130.322218,8.71075713 130.461515,8.52229652 130.555745,8.3092541 C130.649976,8.09621168 130.697092,7.86678138 130.697092,7.62096319 C130.697092,7.34236925 130.641782,7.10474501 130.531163,6.90809046 C130.420545,6.71143593 130.2792,6.54550864 130.107127,6.41030864 C129.935055,6.27510864 129.740449,6.16244199 129.523309,6.07230864 C129.30617,5.98217532 129.091079,5.89613895 128.878036,5.81419956 C128.705964,5.74864803 128.540036,5.68514501 128.380255,5.62369046 C128.220473,5.56223593 128.079127,5.49258744 127.956218,5.41474501 C127.833309,5.33690258 127.734982,5.24676925 127.661236,5.14434501 C127.587491,5.04192077 127.550618,4.92106016 127.550618,4.78176319 C127.550618,4.55233289 127.638703,4.35158138 127.814873,4.17950864 C127.991042,4.00743593 128.267588,3.92139956 128.644509,3.92139956 C128.906715,3.92139956 129.148437,3.97056319 129.369673,4.06889046 C129.590909,4.16721774 129.803951,4.2942238 130.0088,4.44990864 L130.0088,4.44990864 L130.488145,3.81078138 C130.258715,3.62232077 129.986267,3.46253895 129.6708,3.33143593 C129.355333,3.20033289 129.009139,3.13478138 128.632218,3.13478138 C128.312655,3.13478138 128.025867,3.17779956 127.771855,3.26383593 C127.517842,3.34987228 127.302751,3.4686844 127.126582,3.62027228 C126.950412,3.77186016 126.815212,3.95212683 126.720982,4.16107228 C126.626751,4.37001774 126.579636,4.59330258 126.579636,4.83092683 C126.579636,5.08493895 126.632897,5.30207834 126.739418,5.48234501 C126.845939,5.66261168 126.983188,5.82034501 127.151164,5.95554501 C127.319139,6.09074501 127.509649,6.20546016 127.722691,6.29969046 C127.935733,6.39392077 128.148776,6.47790864 128.361818,6.5516541 C128.525697,6.61720562 128.689576,6.68275713 128.853455,6.74830864 C129.017333,6.81386016 129.162776,6.8896541 129.289782,6.97569046 C129.416788,7.06172683 129.521261,7.16210258 129.6032,7.27681774 C129.685139,7.39153289 129.726109,7.52673289 129.726109,7.68241774 C129.726109,7.9446238 129.627782,8.16586016 129.431127,8.34612683 C129.234473,8.5263935 128.939491,8.61652683 128.546182,8.61652683 C128.185649,8.61652683 127.868133,8.55097532 127.593636,8.41987228 C127.319139,8.28876925 127.050788,8.11669652 126.788582,7.9036541 L126.788582,7.9036541 L126.284655,8.5796541 C126.571442,8.81727834 126.907394,9.01393289 127.292509,9.16961774 C127.677624,9.32530258 128.083224,9.40314501 128.509309,9.40314501 Z M133.216727,6.8220541 L133.351927,2.17609046 L133.376509,1.02074501 L132.356363,1.02074501 L132.380945,2.17609046 L132.516145,6.8220541 L133.216727,6.8220541 Z M132.872582,9.40314501 C133.069237,9.40314501 133.239261,9.33144803 133.382655,9.1880541 C133.526049,9.04466016 133.597745,8.86234501 133.597745,8.64110864 C133.597745,8.4034844 133.526049,8.21297532 133.382655,8.06958138 C133.239261,7.92618744 133.069237,7.85449046 132.872582,7.85449046 C132.667733,7.85449046 132.493612,7.92618744 132.350218,8.06958138 C132.206824,8.21297532 132.135127,8.4034844 132.135127,8.64110864 C132.135127,8.86234501 132.206824,9.04466016 132.350218,9.1880541 C132.493612,9.33144803 132.667733,9.40314501 132.872582,9.40314501 Z" id="UX-SimplifyingSolutions!"></path>
            </g>
        </g>
    </g>
</svg>