<?xml version="1.0" encoding="UTF-8"?>
<svg width="206px" height="39px" viewBox="0 0 206 39" version="1.1" xmlns="http://www.w3.org/2000/svg" xmlns:xlink="http://www.w3.org/1999/xlink">
    <!-- Generator: Sketch 62 (91390) - https://sketch.com -->
    <title>TPL logo_Green Copy</title>
    <desc>Created with Sketch.</desc>
    <g id="WEBSITE" stroke="none" stroke-width="1" fill="none" fill-rule="evenodd">
        <g id="TPL-logo_Green-Copy" fill="#FFFFFF" fill-rule="nonzero">
            <g id="Group-63">
                <polygon id="Path" points="19.000329 12.0585366 23.5587135 13.4334089 25.1219512 17.669088 21.6586805 21.102439 16.0454284 19.6911843 15.0731707 15.0744473"></polygon>
                <polygon id="Path" points="25.1219512 13.2802514 26.5090841 17.4543603 30.0251096 19.0926829 32.1560976 16.6813772 31.1545122 12.940942 27.79983 11.0536585"></polygon>
                <polygon id="Path" points="24.3139974 11.0536585 27.1317073 9.02410189 25.6016978 6.3371669 21.3209019 5.02439024 18.0878049 6.57675358 19.2693507 9.74088188"></polygon>
                <polygon id="Path" points="26.383891 19.0926829 29.7457684 20.7260085 30.1463415 24.2773139 27.2416626 27.1317073 23.6931308 26.4485374 23.1121951 22.3554078"></polygon>
                <polygon id="Path" points="22.4913003 21.7198607 23.1121951 26.1414635 19.8120691 29.1414634 15.4598159 27.795122 14.0682927 23.528223 17.4003618 20.097561"></polygon>
                <polygon id="Path" points="20.097561 30.1076663 23.440581 27.1317073 27.1317073 27.9296387 27.1317073 30.736648 24.1608008 33.1609756 20.7837703 32.8393603"></polygon>
                <polygon id="Path" points="14.858282 37.1804878 17.0829268 36.5536418 16.3574041 35.2855161 12.9330245 34.1658537 11.0536585 34.8957992 12.5047039 36.5124019"></polygon>
                <polygon id="Path" points="16.761345 35.1707317 19.0926829 33.562055 18.4250228 30.7109042 14.4792607 29.1414634 12.0585366 31.1948151 13.3646696 33.8563251"></polygon>
                <polygon id="Path" points="11.5573797 31.1512195 14.0682927 29.1576081 12.8138334 24.9495673 8.94275932 23.1121951 7.03414634 25.6786832 8.29658315 29.4075907"></polygon>
                <polygon id="Path" points="4.92403992 29.1414634 6.02926829 27.51323 5.17331199 24.4238188 2.89320566 22.1073171 2.0097561 24.1052998 2.88037548 27.1100697"></polygon>
                <polygon id="Path" points="2.4816721 21.3820936 4.89753575 23.1121951 7.03414634 20.5013905 6.36523785 16.0811793 3.8865964 15.0731707 2.0097561 17.7632804"></polygon>
                <polygon id="Path" points="6.62946693 22.2094 11.0991281 24.1170732 15.0731707 20.4995122 13.9955413 15.3507085 9.42130008 14.0682927 6.02926829 17.4731811"></polygon>
                <polygon id="Path" points="14.90931 14.0682927 19.0926829 10.6623287 18.0678588 7.56165539 13.7458733 7.03414634 10.0487805 9.61146421 10.0487805 12.8159779"></polygon>
                <polygon id="Path" points="18.3388777 7.03414634 21.102439 5.40327869 20.0101548 3.48000799 17.0392237 3.01463415 14.0682927 4.45605758 14.3454701 6.47405037"></polygon>
                <polygon id="Path" points="8.67275669 8.03902439 12.0585366 5.78794673 11.8914681 4.0195122 8.95825343 4.0195122 6.02926829 5.91426348 6.02926829 7.87500113"></polygon>
                <polygon id="Path" points="2.97297254 9.04390244 5.02439024 6.66177133 4.9560652 5.02439024 3.88452859 5.20256012 2.20973183 7.37801419 2.0097561 8.72141499"></polygon>
                <polygon id="Path" points="1.55736847 10.0487805 3.01463415 10.3296849 3.01463415 13.4399895 1.34753762 16.0780488 -4.61186644e-13 15.3411835 -4.61186644e-13 12.4568238"></polygon>
                <polygon id="Path" points="32.7496157 24.1170732 34.1658537 21.0909416 34.1658537 17.7980689 32.6593572 16.0780488 31.1512195 18.6879723 31.3235313 23.3099515"></polygon>
                <polygon id="Path" points="33.1103094 16.4476368 35.1475098 18.0878049 36.1756098 16.1078229 35.7301701 13.6951447 33.3657511 11.0536585 32.1560976 12.4876729"></polygon>
                <polygon id="Path" points="31.8540049 11.0536585 33.1609756 9.48929598 31.5582056 6.5119608 28.7974134 5.02439024 27.1317073 6.02707424 28.5792351 8.95833421"></polygon>
                <polygon id="Path" points="32.6456254 7.03414634 34.2345305 8.90270376 35.1707317 10.9847502 34.6251638 12.0585366 33.2323994 10.4964733 32.1560976 7.87330617"></polygon>
                <polygon id="Path" points="22.0885065 4.96846954 25.4902414 6.02926829 27.1317073 5.3006046 25.3258969 3.62806727 23.1775369 3.01463415 21.102439 3.60264879"></polygon>
                <polygon id="Path" points="12.0585366 3.01463415 14.4375765 3.01463415 17.0829268 1.15947468 16.7120649 -6.43929354e-15 14.2580635 0.165987954 12.1177167 1.49877358"></polygon>
                <polygon id="Path" points="29.945763 33.2466187 31.1512195 33.1609756 31.0539092 34.1201774 28.2239661 36.1756098 27.1317073 36.1756098 27.4752723 35.3134699"></polygon>
                <polygon id="Path" points="33.1609756 24.4831445 33.1609756 26.7518981 34.6682927 27.1317073 36.1598382 25.2872085 36.1756098 22.7780439 34.9183858 22.1073171"></polygon>
            </g>
            <g id="Group-62" transform="translate(48.000000, 4.000000)">
                <path d="M93.6746511,7.19763282 C93.1504682,7.18810216 92.6320879,7.30652198 92.1661177,7.54224515 C90.9904973,8.06407301 90.1343909,9.09902943 89.8559066,10.3350848 C89.7438441,10.80232 89.6662624,11.2780118 89.5800605,11.7515895 C89.2927209,13.3611897 89.005381,14.97079 88.7180414,16.5803904 C88.6900256,16.73684 88.6512349,16.8932899 88.6124439,17.0497397 C88.4941963,17.5644248 88.0760908,17.9613175 87.5478505,18.0603205 C87.1539896,18.1464652 86.7480433,17.9762731 86.5392881,17.6374833 C86.4752579,17.5270014 86.43561,17.4045512 86.4229154,17.2780717 C86.4132753,17.1181034 86.4241354,16.9575807 86.4552413,16.8002657 C87.0916986,13.2991736 87.7288744,9.79737688 88.3667685,6.29487538 C88.3882613,6.16896469 88.4185024,6.04464265 88.4572806,5.92277865 C88.6468831,5.39564788 89.1568343,5.04485578 89.7266036,5.04961983 C90.0612037,5.04891682 90.3677922,5.23281471 90.5196612,5.52531168 C90.5649173,5.60987913 90.5972429,5.70290331 90.648964,5.78112819 C90.7006852,5.85935307 90.7782669,5.92912122 90.8881744,5.88049493 C91.1273848,5.77689982 91.3622848,5.66907634 91.5993403,5.55913866 C92.6165124,5.10240052 93.7455326,4.94029294 94.8534622,5.09190356 C95.9021545,5.21961522 96.8686347,5.71433737 97.5752874,6.48515213 C97.730451,6.65217282 97.8683741,6.82976445 98.0256924,6.9904426 C98.0780363,7.02353536 98.1441563,7.02753945 98.2002513,7.00101351 C98.3855853,6.87204816 98.5601442,6.7303977 98.7368582,6.57817631 C99.5646853,5.89378765 100.546274,5.41193671 101.600917,5.17224263 C102.524968,4.95195318 103.49227,4.97823211 104.402479,5.24835332 C106.03385,5.7642147 107.033792,6.85090632 107.406615,8.49362885 C107.545101,9.08864032 107.559031,9.70503821 107.447561,10.3054862 C107.188955,11.6945064 106.949745,13.0835267 106.70407,14.4725468 C106.592007,15.1068027 106.488565,15.7410585 106.363572,16.3753143 C106.321425,16.6613588 106.258042,16.9440017 106.173928,17.2209888 C105.932563,17.9123275 105.077009,18.2273412 104.594278,18.00958 C104.280868,17.8964032 104.06583,17.6115229 104.046896,17.2844143 C104.04538,17.0606195 104.063405,16.8371085 104.100772,16.6163314 C104.44127,14.7220209 104.786795,12.8291196 105.13735,10.9376279 C105.223326,10.5295916 105.260214,10.1130695 105.247257,9.69660069 C105.184555,8.2812896 103.988774,7.16992414 102.544827,7.18494771 C102.022347,7.18616786 101.506817,7.30249162 101.036294,7.52533164 C99.8469732,8.03421471 98.9722641,9.06396338 98.6765168,10.3033721 C98.5752295,10.7071816 98.5127332,11.1215621 98.4373065,11.5317141 C98.1427833,13.1723225 97.8475419,14.8129307 97.551582,16.4535392 C97.512791,16.6649577 97.4718451,16.8954041 97.4115037,17.1131652 C97.233847,17.6824683 96.7036872,18.0755332 96.0969247,18.0878049 C95.835536,18.0633404 95.5844667,17.9754248 95.3663636,17.8319885 C95.2591944,17.7652943 95.1862455,17.6567916 95.1659442,17.5338883 C95.1896496,17.2146462 95.2068901,16.8996324 95.2629214,16.5782761 C95.6077289,14.6543668 95.9654669,12.7304576 96.3124295,10.8065483 C96.3708862,10.4909975 96.4047467,10.1715352 96.4137168,9.85093627 C96.4314564,9.13611432 96.1474099,8.44585508 95.6287788,7.94346251 C95.1101475,7.44106994 94.4030054,7.17117588 93.6746511,7.19763282 Z" id="Path"></path>
                <path d="M148.20634,6.37079468 C148.495418,6.22404969 148.78234,6.073112 149.069261,5.92846336 C150.233541,5.32846041 151.546814,5.0555136 152.8618,5.14023314 C155.127652,5.26375292 157.041007,6.81871171 157.566879,8.96398827 C157.885639,10.1745387 157.820213,11.450466 157.379194,12.6242276 C156.434295,15.2174212 154.613531,16.9657828 151.906115,17.8043257 C151.001443,18.0884672 150.04037,18.1603074 149.101621,18.0139614 C148.190646,17.8890522 147.327697,17.5397682 146.594834,16.9993246 C146.491283,16.9217595 146.379104,16.8525797 146.275553,16.7896889 C146.236401,16.7642601 146.188431,16.7550509 146.142269,16.7641011 C146.096107,16.7731514 146.055564,16.7997142 146.02962,16.8379051 C145.96906,17.0195431 145.897013,17.1973732 145.81389,17.3703798 C145.599146,17.7747387 145.184748,18.0426709 144.71798,18.0789484 C144.454573,18.0994692 144.194359,18.0118674 144.000468,17.8373966 C143.806578,17.6629258 143.69673,17.4175293 143.697561,17.1607441 C143.707472,17.0344401 143.72694,16.9090172 143.755822,16.7854962 C143.994564,15.439635 144.236182,14.0944727 144.480676,12.750009 C144.778384,11.123236 145.07753,9.49716172 145.378115,7.87178628 C145.779373,5.68318959 146.17416,3.49249654 146.577575,1.30389985 C146.610135,1.11661699 146.665162,0.933685793 146.741531,0.758847039 C146.974497,0.248738991 147.521428,-0.0552058531 148.092003,0.00835125213 C148.534571,0.0548299795 148.8722,0.414381338 148.879418,0.846894036 C148.875434,1.03686523 148.85523,1.22618727 148.819014,1.41291041 C148.547194,2.91390201 148.268901,4.41489361 147.997081,5.91588521 C147.989487,6.01077679 147.989487,6.10609818 147.997081,6.20098976 C147.949621,6.28274768 147.917261,6.37918012 147.997081,6.44626353 C148.076901,6.51334696 148.15025,6.43787811 148.20634,6.37079468 Z M155.463508,10.9995509 C155.441935,10.6725192 155.437621,10.4503054 155.409576,10.2301879 C155.206789,8.64953473 153.882205,7.18627755 151.699014,7.29528812 C151.013635,7.33672475 150.348184,7.53574974 149.757441,7.87597899 C148.66699,8.47277035 147.805451,9.39751532 147.302429,10.5110997 C146.93066,11.3290154 146.810046,12.2339048 146.955104,13.1168714 C147.188791,14.5803555 148.407741,15.7071924 149.923553,15.8610028 C150.737112,15.9542802 151.561087,15.8174338 152.296587,15.4668877 C154.229531,14.523527 155.308183,13.0099572 155.463508,10.9974545 L155.463508,10.9995509 Z" id="Shape"></path>
                <path d="M59.5095787,17.9737294 C58.2880955,18.0141842 57.0902327,17.6410907 56.1220022,16.9186144 C55.9931436,16.8191366 55.8569916,16.7288622 55.7146215,16.648505 C55.6534634,16.6440986 55.594247,16.6703887 55.5577692,16.7181426 C55.4771643,17.0283465 55.3987383,17.3385502 55.3399185,17.6529745 C55.1220681,18.881128 54.9042174,20.1113919 54.6732959,21.3395457 C54.6275472,21.590663 54.5796201,21.8438904 54.514265,22.0907874 C54.3623546,22.6307966 53.8910372,23.0299626 53.3182653,23.1036976 C53.0356841,23.1414071 52.7507622,23.0523422 52.5442422,22.8617425 C52.3377221,22.6711428 52.2321094,22.3997788 52.2573329,22.1245511 C52.2943676,21.7742528 52.3597227,21.4260649 52.4228993,21.0799873 C52.8673145,18.65463 53.3131821,16.2299763 53.7605019,13.8060258 C54.217988,11.3187684 54.6769266,8.8308077 55.1373175,6.34214352 C55.1670976,6.15319098 55.2220172,5.96877037 55.3007055,5.79348382 C55.4992058,5.33775227 55.9577799,5.03940763 56.4683846,5.03380116 C56.953885,4.98828516 57.3908863,5.31968879 57.4617831,5.78715313 C57.4922822,5.9411999 57.4879252,6.10157735 57.5053534,6.25773435 C57.5053534,6.34425375 57.5728871,6.37168675 57.6513131,6.32737193 C57.9083768,6.18598654 58.1610836,6.03616023 58.4225042,5.90532601 C59.6984586,5.20922865 61.1661415,4.91427335 62.6226634,5.06123413 C64.9723415,5.28664047 66.8677162,7.02196383 67.2323815,9.28169343 C67.4388092,10.4573096 67.3053525,11.6653299 66.8467861,12.7720133 C66.0314832,14.8664815 64.3641868,16.5448436 62.2348893,17.4145184 C61.3775551,17.7856763 60.4486374,17.9762823 59.5095787,17.9737294 Z M61.2872394,7.19881814 C61.0579919,7.21779075 60.830233,7.2509191 60.605367,7.29807756 C58.5902491,7.78554061 57.2657177,9.05167839 56.612166,10.9382237 C56.3827685,11.6087796 56.3340263,12.3249868 56.4705631,13.0189101 C56.6388671,13.9464162 57.1970499,14.7646475 58.0118875,15.2783125 C58.8267252,15.7919776 59.825111,15.9549907 60.768755,15.7284451 C62.0651107,15.4255363 63.2070483,14.6838631 63.9885864,13.6372073 C64.6679307,12.7931655 65.0360489,11.7531371 65.0342884,10.6828859 C64.9885205,8.32364916 63.1890748,7.19256609 61.2872394,7.19881814 L61.2872394,7.19881814 Z" id="Shape"></path>
                <path d="M18.1205484,12.2847502 C16.7274117,12.2847502 15.3342748,12.2847502 13.9411381,12.2847502 C13.7819555,12.2882165 13.6236243,12.3087196 13.4689247,12.3458994 C13.4219171,12.3458994 13.3855929,12.4302432 13.3535421,12.4808495 C13.3363841,12.5088061 13.327502,12.5409455 13.3279015,12.5736276 C13.3341899,14.0643653 14.3456838,15.3685544 15.8022151,15.7639307 C16.5597594,15.9594346 17.3581133,15.9374889 18.1034547,15.700673 C18.9152032,15.4609801 19.6509516,15.0195317 20.2401674,14.4186475 C20.443155,14.2077881 20.6290492,13.9969287 20.8384471,13.7860694 C21.0722481,13.5584881 21.3905564,13.4357375 21.7187727,13.4465856 C21.9979613,13.4498983 22.2602433,13.5791826 22.4306209,13.797471 C22.6009982,14.0157591 22.6607123,14.2990171 22.5926882,14.5662492 C22.539984,14.7845154 22.4385091,14.9883966 22.2956852,15.1629815 C20.8576775,16.8498569 19.0564286,17.883068 16.80006,18.0707329 C16.1519954,18.1229833 15.4997462,18.0550409 14.8770185,17.8704166 C12.8599615,17.2863358 11.6441718,15.9494871 11.1847786,13.9357795 C10.9596696,12.865415 11.0252747,11.7553477 11.3749461,10.7180646 C12.1641864,8.19866315 14.1327451,6.20736542 16.665447,5.36645222 C17.8055161,4.97543375 19.0358839,4.91831326 20.2081168,5.20198187 C21.8217133,5.56255799 23.1401341,6.70565852 23.7101889,8.23835767 C24.0652731,9.13555582 24.1907679,10.1052989 24.0755668,11.0617655 C24.031979,11.6951089 23.5245676,12.2012273 22.8832812,12.2510127 C22.6254508,12.2742175 22.3664749,12.2826661 22.1076543,12.2763158 C20.778619,12.2763158 19.4517204,12.2763158 18.1226851,12.2763158 L18.1205484,12.2847502 Z M17.7850844,10.1065722 L20.7893026,10.1065722 C21.0157942,10.1065722 21.2422858,10.1065722 21.4687772,10.0918121 C21.5486234,10.0854302 21.6216201,10.044824 21.6684922,9.98071569 C21.7153645,9.9166074 21.7313993,9.83544294 21.7123625,9.75865418 C21.6482008,9.41336745 21.5160834,9.08383838 21.3234809,8.7887008 C20.6055453,7.56993329 19.1162564,6.99639564 17.7316666,7.25153554 C16.1774212,7.51685187 14.8272529,8.45960261 14.0565207,9.81769484 C14.0415636,9.84510655 14.015923,9.88095265 14.0244699,9.9041472 C14.0330167,9.92734172 14.0693409,10.045423 14.1078019,10.0538574 C14.2645126,10.0864313 14.4241432,10.1033851 14.5842888,10.1044637 C15.6526451,10.1086808 16.7188649,10.1065722 17.7850844,10.1065722 L17.7850844,10.1065722 Z" id="Shape"></path>
                <path d="M115.714664,12.2623778 L111.72471,12.2623778 C111.498266,12.2592466 111.271881,12.2719516 111.047251,12.3003977 C110.97459,12.3109588 110.901929,12.4060088 110.850638,12.4799365 C110.82092,12.53647 110.808307,12.6002678 110.814308,12.6636997 C110.858939,14.3741297 112.213645,15.7698118 113.940876,15.8848363 C115.436842,15.9756619 116.663534,15.4433821 117.714984,14.435853 C117.928693,14.235192 118.108209,14.0134088 118.309096,13.8021868 C118.521242,13.5992377 118.798916,13.4765987 119.093409,13.4557824 C119.32211,13.4254164 119.553517,13.4877236 119.735034,13.6285416 C119.91655,13.7693599 120.032756,13.9767268 120.057239,14.2035086 C120.115665,14.4913203 120.045556,14.7900504 119.8649,15.0230503 C119.602491,15.3478751 119.321353,15.6574771 119.022885,15.9503152 C118.067757,16.8737784 116.884358,17.533605 115.590713,17.8639872 C114.460377,18.1794385 113.261351,18.1610822 112.141443,17.8111817 C110.365518,17.2408822 109.247818,16.0390284 108.73919,14.2837731 C108.412364,13.0670233 108.463747,11.7812063 108.886649,10.5937234 C109.722253,8.01047741 112.038863,5.80109453 114.74656,5.19911162 C115.758338,4.95390494 116.816583,4.96698813 117.821838,5.23713159 C119.501594,5.71238126 120.625705,6.76849162 121.241189,8.38222828 C121.554014,9.26241795 121.658559,10.2017641 121.546793,11.1281152 C121.479117,11.725348 120.992463,12.1912792 120.386351,12.2391433 C120.127763,12.2539289 119.869174,12.2623778 119.610586,12.2623778 L115.714664,12.2623778 Z M115.308616,10.1205859 L115.308616,10.1036882 C116.505389,10.1036882 117.700024,10.1036882 118.89466,10.1036882 C119.18103,10.1036882 119.283611,9.94949606 119.200264,9.67068293 C118.899248,8.4955641 117.963238,7.5826521 116.770388,7.30077126 C116.17307,7.14975686 115.546903,7.14975686 114.949584,7.30077126 C113.509207,7.62390073 112.270159,8.52553235 111.530234,9.78896728 C111.515275,9.81431394 111.511,9.85022169 111.498178,9.87768056 C111.463984,9.94738385 111.543057,10.0889026 111.619992,10.0889026 L115.308616,10.1205859 Z" id="Shape"></path>
                <path d="M128.626466,12.7309036 C128.613201,11.639681 128.873768,10.5613617 129.386252,9.58662962 C130.232004,7.85986603 131.681873,6.4707701 133.484697,5.6599776 C134.45163,5.21319203 135.516786,4.99617921 136.589913,5.02732692 C137.735206,5.04682334 138.844025,5.41626355 139.75459,6.08174475 C139.884301,6.18116458 140.020374,6.27272587 140.162012,6.35589339 C140.222047,6.36988476 140.285369,6.35313048 140.329385,6.31160784 C140.41087,6.13657446 140.452713,5.94467042 140.549613,5.7780724 C140.803061,5.27122335 141.368557,4.97833575 141.950264,5.05263294 C142.363522,5.1057265 142.676842,5.43602083 142.692432,5.83501097 C142.695086,6.05897584 142.67666,6.28271414 142.637375,6.50351188 C142.289415,8.39302864 141.937784,10.2818424 141.582483,12.1699533 C141.346105,13.4352547 141.111929,14.6942296 140.879955,15.946878 C140.816089,16.292727 140.75883,16.640685 140.677346,16.9844251 C140.571769,17.5034227 140.159422,17.9155834 139.622453,18.0388431 C139.394917,18.0988839 139.152365,18.0779057 138.939746,17.9797956 C138.684563,17.8865961 138.497927,17.6735722 138.446435,17.4167365 C138.408996,17.2311589 138.40239,17.0413638 138.362748,16.8557861 C138.322794,16.8100565 138.26171,16.7863434 138.19978,16.792521 C138.016382,16.8660937 137.838333,16.9513406 137.666828,17.0476902 C136.806323,17.5434042 135.853431,17.8742962 134.861122,18.0219724 C133.830856,18.1786208 132.775345,18.0543814 131.815368,17.6634703 C130.304604,17.0519079 129.355421,15.9447691 128.873121,14.4580401 C128.69316,13.8990461 128.609843,13.3156401 128.626466,12.7309036 Z M139.479305,10.6452651 C139.506607,10.1251964 139.397588,9.60685115 139.162176,9.13744764 C138.549942,7.84894904 137.499454,7.18466581 136.01732,7.15932665 C135.245117,7.15761297 134.48747,7.36051916 133.828253,7.74561608 C132.532765,8.44380905 131.571628,9.59708884 131.148077,10.9615905 C130.865945,11.7530138 130.837567,12.607171 131.066593,13.4141664 C131.390328,14.4938902 132.066428,15.280486 133.17858,15.6811648 C133.939625,15.9433006 134.769103,15.9610666 135.541627,15.7317769 C137.781346,15.1307587 139.479305,12.9628755 139.483709,10.6452651 L139.479305,10.6452651 Z" id="Shape"></path>
                <path d="M51.2449402,9.41651277 C51.2758378,10.0328539 51.1131102,10.6198454 51.0142377,11.2131261 C50.734099,12.9049195 50.4292421,14.5904237 50.1305648,16.2801206 C50.0811286,16.5610381 50.0316923,16.8440517 49.9595978,17.11868 C49.8041401,17.6520626 49.3426768,18.0334469 48.7978459,18.0788303 C48.5622414,18.101482 48.3278626,18.0244404 48.1497869,17.8658092 C47.9717111,17.7071782 47.8656392,17.4809445 47.8564974,17.2402711 C47.8607012,16.986357 47.8855036,16.7332299 47.9306516,16.4834714 C48.2622865,14.5757489 48.6021607,12.6701229 48.9337956,10.7624005 C48.9864881,10.4818062 49.0229414,10.1983042 49.0429673,9.91335915 C49.1027028,8.87983481 48.6557166,7.93435919 47.4424687,7.49830836 C45.6462849,6.85261769 43.485509,7.82325009 42.7872219,9.50036869 C42.6505113,9.82046185 42.5496308,10.1551969 42.4864847,10.4982543 C42.1486702,12.3724343 41.8314542,14.2508073 41.5039393,16.1270835 C41.4503831,16.4415434 41.4009469,16.7560032 41.3288524,17.0641737 C41.1942731,17.6029213 40.7516404,18.0044613 40.2103573,18.0788303 C39.8931877,18.1229535 39.5753748,18.0025439 39.3637616,17.7580815 C39.238293,17.612293 39.1765641,17.4207923 39.1927944,17.2276927 C39.2076322,16.9744585 39.2379015,16.722406 39.2834275,16.4729893 C39.4880387,15.2836327 39.6940232,14.0956737 39.9013807,12.9091123 C40.2474346,10.9384979 40.5976081,8.96997995 40.9313026,6.99936557 C41.2588179,5.11260715 41.5801534,3.24681269 41.9097284,1.37053626 C41.9412762,1.18268495 41.9895381,0.998141313 42.0539174,0.819183522 C42.257197,0.30259578 42.7601916,-0.0257744722 43.3063024,0.00158819582 C43.7643216,0.0241062908 44.1228453,0.411219283 44.1178809,0.877882681 C44.1137479,1.06773807 44.0951536,1.25698135 44.062265,1.44391019 C43.8562808,2.63256802 43.6379373,3.81912943 43.4298931,5.00778724 C43.3578524,5.28086906 43.334825,5.56494103 43.3619183,5.84634653 C43.3763372,5.92810606 43.4154742,5.96793765 43.4916883,5.94278086 C43.6399529,5.90320627 43.7852081,5.8527609 43.9263153,5.79184017 C44.4019321,5.55226649 44.9039732,5.37139285 45.4217621,5.25306582 C46.4011944,5.02110528 47.4244236,5.0675181 48.3796976,5.38723532 C49.5970653,5.80651497 50.4972169,6.58847151 50.9648015,7.8316357 C51.1646464,8.33459161 51.260027,8.87420576 51.2449402,9.41651277 Z" id="Path"></path>
                <path d="M7.24624322,1.77635684e-14 L12.4525162,1.77635684e-14 C12.7134769,1.77635684e-14 12.9765942,1.77635684e-14 13.2375549,0.0125786867 C13.5011819,0.0366909165 13.7412012,0.170447313 13.8958112,0.379407611 C14.0504213,0.588367909 14.1045136,0.852112741 14.0441604,1.10273172 C13.9427957,1.58701124 13.4295011,2.1509558 12.7997449,2.1509558 C12.4395759,2.1509558 12.0815638,2.1509558 11.721395,2.1509558 L8.57045685,2.1509558 C8.43889831,2.1509558 8.30949616,2.1509558 8.17793762,2.16982384 C8.05323932,2.205634 7.95181314,2.29421336 7.90188001,2.41091537 C7.84149233,2.69183942 7.78110488,2.97276347 7.72934398,3.24949462 C7.3095065,5.56397339 6.88966902,7.87984976 6.46983154,10.1971238 C6.07012321,12.3872133 5.66969593,14.5773027 5.26854968,16.7673923 C5.24066027,16.9241124 5.19732675,17.0778611 5.13914777,17.2265143 C4.96284769,17.6845573 4.54202412,18.0114888 4.04354436,18.0776724 C3.78140807,18.116283 3.51484833,18.043462 3.31178115,17.8777632 C3.10871398,17.7120646 2.98874774,17.4694883 2.98244805,17.2118392 C2.98614869,17.0528851 3.00273464,16.894462 3.03205233,16.7380419 C3.57985403,13.766676 4.12765574,10.7953103 4.67545745,7.82394447 C4.97308188,6.19710071 5.2599229,4.56816052 5.5489208,2.9392203 C5.56617435,2.84488014 5.58774142,2.75263641 5.60068146,2.65829625 C5.65675564,2.27254979 5.55323407,2.16353448 5.11758071,2.14885936 C4.95367169,2.14885936 4.78976243,2.14885936 4.62585318,2.14885936 C3.54750356,2.14885936 2.4691537,2.14885936 1.39080384,2.14885936 C1.16219362,2.14885936 0.933583413,2.14885936 0.704973444,2.12789486 C0.339130418,2.06821588 0.0563733802,1.78314675 0.0083593989,1.42558475 C-0.0725116088,0.727776127 0.44246104,0.0978254309 1.16003699,0.0167715822 C1.42099768,-0.00419289556 1.684115,0.00209645947 1.94507569,0.00209645947 L7.24624322,1.77635684e-14 Z" id="Path"></path>
                <path d="M32.8615173,5.02439024 C34.3138386,5.02439024 35.4874316,5.36209224 36.5227083,6.13036424 C36.6726864,6.2434735 36.8128992,6.36915235 36.9418485,6.5060577 C37.1232534,6.69308178 37.2083866,6.95419821 37.172376,7.21312122 C37.0905381,7.84110506 36.572593,8.31912336 35.9442945,8.34653351 C35.7210646,8.3723319 35.4964188,8.31199938 35.3155839,8.17768252 C35.2149902,8.09747829 35.1164925,8.01727409 35.0158986,7.94129114 C34.1689217,7.29139305 33.0905533,7.0281073 32.0420978,7.21523186 C30.3087858,7.4485287 28.7887329,8.49758513 27.9470964,10.0413753 C27.5569052,10.7061858 27.345957,11.4621349 27.3351514,12.2343276 C27.2728703,14.0451933 28.5894686,15.6061935 30.373919,15.8371856 C31.4507306,16.006145 32.5527671,15.8101511 33.5069934,15.2799774 C33.7584777,15.1470072 33.9973877,14.9823774 34.2530632,14.85785 C34.5416421,14.7096432 34.8820583,14.7041887 35.175172,14.8430755 C35.5231367,15.0225558 35.7187351,15.4055022 35.6613749,15.7949728 C35.6032003,16.080433 35.4564171,16.3398735 35.2422345,16.5358066 C35.1732193,16.6019089 35.0981366,16.6612724 35.0179944,16.7131003 C33.2387436,17.8760613 31.3148892,18.40161 29.2129003,17.8950571 C27.2366534,17.4201638 25.9016913,16.1959941 25.3295648,14.2035524 C25.0444496,13.1472266 25.0531492,12.0322914 25.3547132,10.980609 C25.7573521,9.45419007 26.6145101,8.08857855 27.8108757,7.06748726 C28.9318823,6.05934897 30.3115914,5.38871216 31.7927092,5.13203274 C32.2181368,5.06871363 32.637277,5.05393918 32.8615173,5.02439024 Z" id="Path"></path>
                <path d="M73.1362535,6.77259328 C73.1362535,6.84680153 73.2032595,6.87648484 73.2702655,6.83195988 C73.4463201,6.71605366 73.6177763,6.59308 73.7846342,6.46303886 C74.3597174,6.00203545 74.9944728,5.63415578 75.6686822,5.37111742 C76.230374,5.15064281 76.8228149,5.0344957 77.4206892,5.02763922 C77.539606,5.02831511 77.6582631,5.03966238 77.7754262,5.061563 C78.0787215,5.12599021 78.3137798,5.38477753 78.3666547,5.71247538 C78.415028,6.04977916 78.335393,6.39384795 78.1456462,6.66736159 C77.9558992,6.94087521 77.671956,7.12089167 77.3576249,7.16695715 C77.1231043,7.20300115 76.8807005,7.19664044 76.6461799,7.24116539 C75.8510569,7.41441062 75.118249,7.82772616 74.5335235,8.43273792 C73.9998354,8.94844265 73.5266396,9.53228934 73.124429,10.1713313 C73.008154,10.357912 72.8899084,10.5423725 72.7775751,10.7331938 C72.2494109,11.6385344 72.2513816,11.6385344 72.081896,12.6838107 L71.4591354,16.4705518 C71.4276032,16.6613731 71.3862172,16.8479539 71.346802,17.0366549 C71.2484742,17.5552152 70.8698383,17.9592236 70.3870412,18.0607287 C70.1226447,18.128947 69.8437442,18.0667598 69.6263272,17.8911098 C69.4444892,17.7677782 69.3348963,17.5520198 69.3365662,17.3207665 C69.3400963,17.0324886 69.3624873,16.7448343 69.4036311,16.4599508 C69.8477094,13.7743186 70.2957293,11.0886866 70.7476906,8.40305461 C70.8738192,7.64613044 71.0019188,6.88708602 71.1221353,6.1280416 C71.2310395,5.46916801 71.7757047,4.9982138 72.397218,5.02551898 C72.803608,5.03276099 73.1352798,5.37753998 73.1559612,5.81424671 C73.1559612,5.97326437 73.1441366,6.13440231 73.1362535,6.29342" id="Path"></path>
                <path d="M128.62071,1.06031554 C128.576778,1.33716461 128.524479,1.68951796 128.463812,2.0271899 C128.04542,4.37621221 127.627027,6.72453541 127.208635,9.07215949 C126.755376,11.6393053 126.301421,14.2071502 125.846767,16.7756942 C125.825483,16.9009038 125.794712,17.0243052 125.754721,17.1448264 C125.596313,17.6443824 125.164304,18.0072222 124.645981,18.0760459 C124.390517,18.1177547 124.129495,18.0473834 123.929351,17.8828433 C123.729207,17.7183032 123.609246,17.4754646 123.6,17.2161359 C123.600247,17.0572204 123.614246,16.8986261 123.641839,16.7421368 C124.029549,14.5497159 124.418654,12.3579943 124.809154,10.1669717 C125.227547,7.78998481 125.649426,5.41299795 126.074791,3.0360111 C126.191941,2.37954325 126.306999,1.72097806 126.436701,1.06660757 C126.553085,0.525570919 126.986463,0.110186119 127.530797,0.0179368988 C128.202317,-0.0953195385 128.670917,0.336732778 128.62071,1.06031554 Z" id="Path"></path>
                <path d="M82.4792061,5.02680603 C82.7457829,5.00643529 83.0063777,5.11573857 83.1847486,5.32273736 C83.3631197,5.52973617 83.4391057,5.81103297 83.3904752,6.08432957 C83.3904752,6.18162173 83.361998,6.27468379 83.3457254,6.36986091 C82.7612656,9.77649671 82.1768057,13.1838374 81.5923458,16.5918833 C81.5666909,16.7818867 81.5286336,16.9698549 81.4784372,17.1544859 C81.3035874,17.6854803 80.8374938,18.0539782 80.298669,18.0872217 C79.8125378,18.105079 79.4041165,17.7106676 79.3853659,17.205247 C79.3901182,17.0454648 79.4071227,16.8863312 79.4362179,16.7293614 C80.024746,13.2902949 80.6146299,9.85122837 81.2058701,6.41216186 C81.2295137,6.25465677 81.2614289,6.09861503 81.3014719,5.94473647 C81.4605341,5.40517668 81.9365155,5.03419498 82.4792061,5.02680603 L82.4792061,5.02680603 Z" id="Path"></path>
            </g>
            <path d="M132.64878,6.1650292 C132.609394,6.45385599 132.543703,6.73973661 132.452282,7.02017091 C132.271024,7.52658704 131.779172,7.91246997 131.164127,8.0307929 C130.782567,8.12720313 130.368723,8.05678207 130.062289,7.84330034 C129.755856,7.62981863 129.597722,7.30176291 129.641266,6.96986845 C129.664927,6.69544525 129.724413,6.42402094 129.81866,6.16045625 C129.99615,5.57477119 130.586865,5.14173306 131.303314,5.0720941 C131.969224,4.9714892 132.629676,5.44021659 132.64878,6.1650292 Z" id="Path"></path>
            <path d="M196.956098,16.704295 C196.747051,16.9563209 196.497804,17.2465325 196.152075,16.9715952 C195.806345,16.6966578 195.975189,16.3758976 196.152075,16.0780488 L196.956098,16.704295 Z" id="Path"></path>
            <g id="UX---Simplifying-Sol" transform="translate(59.000000, 26.000000)">
                <path d="M3.03104,9.54780878 C3.44704,9.54780878 3.83392001,9.48748878 4.19168,9.36684878 C4.54944,9.24620878 4.85936,9.04652877 5.12144001,8.76780878 C5.38352,8.48908878 5.58944,8.12508878 5.73920001,7.67580878 C5.88896,7.22652879 5.96384,6.67324878 5.96384,6.01596879 L5.96384,6.01596879 L5.96384,1.21116878 L4.96544,1.21116878 L4.96544,6.04092878 C4.96544,6.53180879 4.91552001,6.94364879 4.81568,7.27644878 C4.71584,7.60924878 4.57856,7.87548878 4.40384,8.07516879 C4.22912001,8.27484878 4.02528,8.41836879 3.79231999,8.50572877 C3.55936001,8.59308878 3.3056,8.63676878 3.03104,8.63676878 C2.7648,8.63676878 2.5152,8.59308878 2.28223999,8.50572877 C2.04928001,8.41836879 1.84752,8.27484878 1.67696,8.07516879 C1.5064,7.87548878 1.3712,7.60924878 1.27136,7.27644878 C1.17152,6.94364879 1.1216,6.53180879 1.1216,6.04092878 L1.1216,6.04092878 L1.1216,1.21116878 L0.0857600006,1.21116878 L0.0857600006,6.01596879 C0.0857600006,6.67324878 0.16064,7.22652879 0.3104,7.67580878 C0.460160002,8.12508878 0.666080002,8.48908878 0.928159996,8.76780878 C1.19024,9.04652877 1.50224,9.24620878 1.86416,9.36684878 C2.22608,9.48748878 2.61504,9.54780878 3.03104,9.54780878 Z M8.21024001,9.39804877 L9.39584,7.18908878 C9.49568,6.98940878 9.59968001,6.78348878 9.70784,6.57132878 C9.81599999,6.35916879 9.92832,6.12828879 10.0448,5.87868879 L10.0448,5.87868879 L10.09472,5.87868879 C10.22784,6.12828879 10.35056,6.35916879 10.46288,6.57132878 C10.5752,6.78348878 10.68544,6.98940878 10.7936,7.18908878 L10.7936,7.18908878 L11.99168,9.39804877 L13.13984,9.39804877 L10.75616,5.21724878 L12.9900801,1.21116878 L11.89184,1.21116878 L10.80608,3.30780878 C10.70624,3.49916878 10.61264,3.68428878 10.52528,3.86316879 C10.43792,4.04204878 10.336,4.25212878 10.21952,4.49340878 L10.21952,4.49340878 L10.1696,4.49340878 C10.0448,4.25212878 9.93456001,4.04204878 9.83888,3.86316879 C9.7432,3.68428878 9.64128,3.49916878 9.53312,3.30780878 L9.53312,3.30780878 L8.4224,1.21116878 L7.27424,1.21116878 L9.49568,5.16732879 L7.11200001,9.39804877 L8.21024001,9.39804877 Z M19.20512,6.66492878 L19.20512,5.87868879 L16.33472,5.87868879 L16.33472,6.66492878 L19.20512,6.66492878 Z M25.59488,9.54780878 C26.0275199,9.54780878 26.4143999,9.48748878 26.75552,9.36684878 C27.09664,9.24620878 27.38784,9.07980879 27.62912,8.86764878 C27.8704001,8.65548878 28.05552,8.40796878 28.1844799,8.12508878 C28.31344,7.84220878 28.37792,7.53852878 28.37792,7.21404878 C28.37792,6.91452878 28.33424,6.65036878 28.24688,6.42156878 C28.1595201,6.19276878 28.04096,5.99308878 27.8912,5.82252878 C27.74144,5.65196878 27.56256,5.50220879 27.35456,5.37324879 C27.14656,5.24428879 26.92608,5.12988878 26.69312,5.03004879 L26.69312,5.03004879 L25.53248,4.53084878 C25.36608,4.46428877 25.2038399,4.39148878 25.04576,4.31244878 C24.88768,4.23340878 24.7420801,4.14188878 24.60896,4.03788878 C24.47584,3.93388878 24.3697601,3.81324878 24.29072,3.67596878 C24.21168,3.53868878 24.17216,3.37020878 24.17216,3.17052878 C24.17216,2.79612878 24.3115199,2.50284878 24.5902401,2.29068878 C24.86896,2.07852879 25.2371201,1.97244878 25.69472,1.97244878 C26.07744,1.97244878 26.42064,2.04108878 26.72432,2.17836878 C27.028,2.31564878 27.30464,2.50492878 27.55424,2.74620878 L27.55424,2.74620878 L28.1158399,2.07228878 C27.82464,1.77276878 27.47104,1.52940879 27.05504,1.34220878 C26.63904,1.15500878 26.1856,1.06140878 25.69472,1.06140878 C25.32032,1.06140878 24.97712,1.11548878 24.66512,1.22364878 C24.35312,1.33180879 24.08272,1.48364878 23.85392,1.67916878 C23.6251199,1.87468878 23.44624,2.10556878 23.31728,2.37180878 C23.1883199,2.63804878 23.12384,2.92508878 23.12384,3.23292878 C23.12384,3.53244878 23.1737599,3.79660878 23.2736,4.02540879 C23.37344,4.25420878 23.5023999,4.45180878 23.66048,4.61820879 C23.81856,4.78460878 23.9974399,4.92604878 24.19712,5.04252878 C24.3968,5.15900879 24.59232,5.25884878 24.78368,5.34204878 L24.78368,5.34204878 L25.9568,5.85372879 C26.14816,5.94524878 26.32704,6.03260878 26.49344,6.11580878 C26.6598399,6.19900878 26.80336,6.29260878 26.9240001,6.39660878 C27.04464,6.50060878 27.1403199,6.62540879 27.21104,6.77100879 C27.2817601,6.91660878 27.31712,7.09340878 27.31712,7.30140878 C27.31712,7.70076878 27.16736,8.02316878 26.86784,8.26860878 C26.56832,8.51404877 26.14816,8.63676878 25.60736,8.63676878 C25.18304,8.63676878 24.77328,8.54316878 24.37808,8.35596878 C23.9828799,8.16876878 23.6396799,7.92124879 23.34848,7.61340877 L23.34848,7.61340877 L22.72448,8.33724878 C23.08224,8.71164877 23.5065601,9.00700878 23.9974399,9.22332878 C24.48832,9.43964879 25.0208,9.54780878 25.59488,9.54780878 Z M30.41216,2.08476878 C30.61184,2.08476878 30.78032,2.02236878 30.9176,1.89756879 C31.05488,1.77276878 31.12352,1.61468879 31.12352,1.42332878 C31.12352,1.22364878 31.05488,1.06348878 30.9176,0.94284878 C30.78032,0.822208781 30.61184,0.76188878 30.41216,0.76188878 C30.21248,0.76188878 30.044,0.822208781 29.90672,0.94284878 C29.76944,1.06348878 29.7008,1.22364878 29.7008,1.42332878 C29.7008,1.61468879 29.76944,1.77276878 29.90672,1.89756879 C30.044,2.02236878 30.21248,2.08476878 30.41216,2.08476878 Z M30.91136,9.39804877 L30.91136,3.33276878 L29.888,3.33276878 L29.888,9.39804877 L30.91136,9.39804877 Z M33.98144,9.39804877 L33.98144,5.00508877 C34.5388799,4.38108878 35.0464,4.06908879 35.5040001,4.06908879 C35.89504,4.06908879 36.18208,4.19596878 36.36512,4.44972878 C36.5481601,4.70348879 36.63968,5.11740878 36.63968,5.69148877 L36.63968,5.69148877 L36.63968,9.39804877 L37.66304,9.39804877 L37.66304,5.00508877 C38.2204799,4.38108878 38.728,4.06908879 39.1856,4.06908879 C39.5683201,4.06908879 39.8512,4.19596878 40.0342401,4.44972878 C40.21728,4.70348879 40.3088001,5.11740878 40.3088001,5.69148877 L40.3088001,5.69148877 L40.3088001,9.39804877 L41.33216,9.39804877 L41.33216,5.55420877 C41.33216,4.77212879 41.18032,4.18140877 40.87664,3.78204878 C40.57296,3.38268879 40.10912,3.18300878 39.4851201,3.18300878 C39.11072,3.18300878 38.76336,3.28908877 38.44304,3.50124878 C38.1227199,3.71340878 37.80448,3.99420878 37.48832,4.34364879 C37.36352,3.97756878 37.17008,3.69260877 36.908,3.48876878 C36.64592,3.28492878 36.28192,3.18300878 35.816,3.18300878 C35.4499201,3.18300878 35.11088,3.28076877 34.79888,3.47628879 C34.48688,3.67180878 34.19776,3.91516877 33.93152,4.20636879 L33.93152,4.20636879 L33.89408,4.20636879 L33.80672,3.33276878 L32.95808,3.33276878 L32.95808,9.39804877 L33.98144,9.39804877 Z M44.32736,11.9564488 L44.32736,9.90972878 L44.3024,8.84892877 C44.58528,9.06524878 44.86608,9.23580878 45.1448,9.36060878 C45.42352,9.48540878 45.70432,9.54780878 45.9872,9.54780878 C46.33664,9.54780878 46.66944,9.47500877 46.9856,9.32940877 C47.30176,9.18380877 47.5804799,8.96956878 47.82176,8.68668878 C48.06304,8.40380878 48.2544,8.06060878 48.39584,7.65708878 C48.53728,7.25356878 48.608,6.79388878 48.608,6.27804878 C48.608,5.80380878 48.5559999,5.37740878 48.452,4.99884878 C48.348,4.62028878 48.19616,4.29580878 47.9964801,4.02540879 C47.7968,3.75500878 47.5472,3.54700878 47.24768,3.40140878 C46.94816,3.25580878 46.60288,3.18300878 46.2118401,3.18300878 C45.8540801,3.18300878 45.5108801,3.26620878 45.1822401,3.43260878 C44.8536001,3.59900878 44.552,3.79868878 44.27744,4.03164878 L44.27744,4.03164878 L44.24,4.03164878 L44.1526401,3.33276878 L43.304,3.33276878 L43.304,11.9564488 L44.32736,11.9564488 Z M45.81248,8.68668878 C45.6128,8.68668878 45.3839999,8.63884878 45.12608,8.54316878 C44.8681601,8.44748878 44.60192,8.28316878 44.32736,8.05020879 L44.32736,8.05020879 L44.32736,4.86780877 C44.62688,4.60156877 44.9076801,4.39772878 45.16976,4.25628878 C45.43184,4.11484878 45.6918401,4.04412877 45.94976,4.04412877 C46.23264,4.04412877 46.476,4.09820878 46.67984,4.20636879 C46.8836801,4.31452878 47.0500801,4.46636878 47.17904,4.66188877 C47.308,4.85740878 47.4016,5.09244878 47.45984,5.36700878 C47.51808,5.64156878 47.5472,5.94524878 47.5472,6.27804878 C47.5472,6.65244877 47.50352,6.98940878 47.41616,7.28892878 C47.3288,7.58844878 47.20816,7.84012878 47.05424,8.04396878 C46.90032,8.24780879 46.7172799,8.40588878 46.50512,8.51820878 C46.29296,8.63052878 46.06208,8.68668878 45.81248,8.68668878 Z M51.3161599,9.54780878 C51.4576001,9.54780878 51.57408,9.53948878 51.6656,9.52284878 C51.7571201,9.50620878 51.8361599,9.48124878 51.90272,9.44796879 L51.90272,9.44796879 L51.76544,8.67420878 C51.7072,8.69084878 51.6635201,8.69916878 51.6344001,8.69916878 L51.6344001,8.69916878 L51.5408,8.69916878 C51.46592,8.69916878 51.3993599,8.66588878 51.34112,8.59932879 C51.28288,8.53276878 51.25376,8.41628878 51.25376,8.24988878 L51.25376,8.24988878 L51.25376,0.512288781 L50.2304,0.512288781 L50.2304,8.17500878 C50.2304,8.62428879 50.3136,8.96540878 50.48,9.19836878 C50.6464,9.43132879 50.92512,9.54780878 51.3161599,9.54780878 Z M53.93696,2.08476878 C54.13664,2.08476878 54.30512,2.02236878 54.4424,1.89756879 C54.57968,1.77276878 54.64832,1.61468879 54.64832,1.42332878 C54.64832,1.22364878 54.57968,1.06348878 54.4424,0.94284878 C54.30512,0.822208781 54.13664,0.76188878 53.93696,0.76188878 C53.73728,0.76188878 53.5688,0.822208781 53.43152,0.94284878 C53.29424,1.06348878 53.2256,1.22364878 53.2256,1.42332878 C53.2256,1.61468879 53.29424,1.77276878 53.43152,1.89756879 C53.5688,2.02236878 53.73728,2.08476878 53.93696,2.08476878 Z M54.43616,9.39804877 L54.43616,3.33276878 L53.4128,3.33276878 L53.4128,9.39804877 L54.43616,9.39804877 Z M57.68096,9.39804877 L57.68096,4.16892878 L58.9664,4.16892878 L58.9664,3.33276878 L57.68096,3.33276878 L57.68096,2.37180878 C57.68096,1.58972879 57.9638401,1.19868878 58.5296,1.19868878 C58.76256,1.19868878 58.99136,1.24860878 59.216,1.34844879 L59.216,1.34844879 L59.44064,0.562208781 C59.2992,0.503968781 59.1432,0.45612878 58.97264,0.41868878 C58.8020801,0.381248781 58.6211201,0.362528781 58.4297601,0.362528781 C57.8223999,0.362528781 57.3752,0.54140878 57.08816,0.89916878 C56.80112,1.25692878 56.6576,1.74780878 56.6576,2.37180878 L56.6576,2.37180878 L56.6576,3.33276878 L55.83392,3.39516878 L55.83392,4.16892878 L56.6576,4.16892878 L56.6576,9.39804877 L57.68096,9.39804877 Z M60.22688,12.0063688 C60.53472,12.0063688 60.80512,11.9522888 61.0380801,11.8441288 C61.27104,11.7359688 61.4790401,11.5882888 61.66208,11.4010888 C61.84512,11.2138888 62.0032,10.9913288 62.1363201,10.7334088 C62.2694399,10.4754888 62.39008,10.1967688 62.49824,9.89724878 L62.49824,9.89724878 L64.78208,3.33276878 L63.7836801,3.33276878 L62.69792,6.68988878 C62.61472,6.95612878 62.53152,7.23900878 62.44832,7.53852878 C62.36512,7.83804878 62.27776,8.12508878 62.18624,8.39964878 L62.18624,8.39964878 L62.1363201,8.39964878 C62.0448,8.11676878 61.94704,7.82764877 61.84304,7.53228878 C61.7390401,7.23692878 61.6412801,6.95612878 61.54976,6.68988878 L61.54976,6.68988878 L60.31424,3.33276878 L59.2534401,3.33276878 L61.68704,9.41052878 L61.54976,9.85980879 C61.42496,10.2342088 61.25232,10.5441288 61.03184,10.7895688 C60.81136,11.0350088 60.5264,11.1577288 60.17696,11.1577288 C60.1020799,11.1577288 60.0230401,11.1473288 59.9398401,11.1265288 L59.9398401,11.1265288 L59.7152,11.0703688 L59.51552,11.8815688 C59.61536,11.9231688 59.72352,11.9543688 59.84,11.9751688 C59.95648,11.9959688 60.08544,12.0063688 60.22688,12.0063688 Z M66.47936,2.08476878 C66.67904,2.08476878 66.84752,2.02236878 66.9848,1.89756879 C67.12208,1.77276878 67.19072,1.61468879 67.19072,1.42332878 C67.19072,1.22364878 67.12208,1.06348878 66.9848,0.94284878 C66.84752,0.822208781 66.67904,0.76188878 66.47936,0.76188878 C66.2796799,0.76188878 66.1112,0.822208781 65.97392,0.94284878 C65.83664,1.06348878 65.768,1.22364878 65.768,1.42332878 C65.768,1.61468879 65.83664,1.77276878 65.97392,1.89756879 C66.1112,2.02236878 66.2796799,2.08476878 66.47936,2.08476878 Z M66.97856,9.39804877 L66.97856,3.33276878 L65.9552,3.33276878 L65.9552,9.39804877 L66.97856,9.39804877 Z M70.04864,9.39804877 L70.04864,5.00508877 C70.35648,4.69724878 70.63104,4.46428877 70.87232,4.30620878 C71.1136001,4.14812878 71.39232,4.06908879 71.70848,4.06908879 C72.10784,4.06908879 72.39904,4.19596878 72.58208,4.44972878 C72.76512,4.70348879 72.85664,5.11740878 72.85664,5.69148877 L72.85664,5.69148877 L72.85664,9.39804877 L73.88,9.39804877 L73.88,5.55420877 C73.88,4.77212879 73.7323199,4.18140877 73.43696,3.78204878 C73.1416,3.38268879 72.6736,3.18300878 72.03296,3.18300878 C71.6086401,3.18300878 71.2363199,3.28076877 70.916,3.47628879 C70.59568,3.67180878 70.2899201,3.91516877 69.99872,4.20636879 L69.99872,4.20636879 L69.9612801,4.20636879 L69.87392,3.33276878 L69.0252799,3.33276878 L69.0252799,9.39804877 L70.04864,9.39804877 Z M77.89856,12.1935688 C78.3728,12.1935688 78.7992,12.1374088 79.17776,12.0250888 C79.5563201,11.9127688 79.87872,11.7609288 80.1449599,11.5695688 C80.4112,11.3782088 80.6150401,11.1556488 80.75648,10.9018888 C80.89792,10.6481288 80.9686399,10.3798088 80.9686399,10.0969288 C80.9686399,9.58940878 80.7918401,9.22124878 80.43824,8.99244878 C80.08464,8.76364878 79.55424,8.64924878 78.84704,8.64924878 L78.84704,8.64924878 L77.6739199,8.64924878 C77.25792,8.64924878 76.97504,8.58684878 76.8252801,8.46204879 C76.67552,8.33724878 76.60064,8.17916879 76.60064,7.98780878 C76.60064,7.82140878 76.63808,7.68204877 76.7129599,7.56972879 C76.78784,7.45740879 76.8793601,7.35548879 76.9875199,7.26396878 C77.1289601,7.33052877 77.27872,7.38252878 77.4368,7.41996878 C77.5948801,7.45740879 77.7488,7.47612877 77.89856,7.47612877 C78.2064,7.47612877 78.49552,7.42620878 78.76592,7.32636878 C79.0363201,7.22652879 79.27136,7.08716878 79.47104,6.90828879 C79.67072,6.72940877 79.8288,6.50892878 79.94528,6.24684878 C80.0617599,5.98476878 80.1200001,5.69148877 80.1200001,5.36700878 C80.1200001,5.10908878 80.07216,4.87196878 79.97648,4.65564878 C79.8808,4.43932878 79.7622401,4.26044878 79.6208,4.11900878 L79.6208,4.11900878 L80.8688,4.11900878 L80.8688,3.33276878 L78.75968,3.33276878 C78.6432,3.29116878 78.5121599,3.25580878 78.36656,3.22668878 C78.22096,3.19756878 78.06496,3.18300878 77.89856,3.18300878 C77.5907199,3.18300878 77.29744,3.23292878 77.01872,3.33276878 C76.74,3.43260878 76.4966401,3.57612878 76.28864,3.76332878 C76.0806399,3.95052878 75.91632,4.17724878 75.7956801,4.44348878 C75.67504,4.70972878 75.6147199,5.00924878 75.6147199,5.34204878 C75.6147199,5.70812879 75.69584,6.03052878 75.85808,6.30924877 C76.02032,6.58796878 76.20128,6.81052878 76.40096,6.97692879 L76.40096,6.97692879 L76.40096,7.02684878 C76.24288,7.13500878 76.09312,7.28476878 75.95168,7.47612877 C75.8102401,7.66748878 75.73952,7.89212878 75.73952,8.15004878 C75.73952,8.39132878 75.7915199,8.59308878 75.89552,8.75532878 C75.99952,8.91756877 76.1264,9.04444878 76.2761601,9.13596878 L76.2761601,9.13596878 L76.2761601,9.18588878 C76.0016001,9.37724878 75.78528,9.58940878 75.6272,9.82236878 C75.46912,10.0553288 75.39008,10.3007688 75.39008,10.5586888 C75.39008,10.8249288 75.4504,11.0578888 75.57104,11.2575688 C75.69168,11.4572488 75.86224,11.6278088 76.08272,11.7692488 C76.3032,11.9106888 76.56736,12.0167688 76.8752,12.0874888 C77.1830401,12.1582088 77.52416,12.1935688 77.89856,12.1935688 Z M77.89856,6.78972877 C77.72384,6.78972877 77.55952,6.75644878 77.4056,6.68988878 C77.2516801,6.62332878 77.1144001,6.52764878 76.99376,6.40284879 C76.87312,6.27804878 76.77952,6.12620878 76.7129599,5.94732879 C76.6464,5.76844877 76.61312,5.56668878 76.61312,5.34204878 C76.61312,4.89276879 76.73792,4.54540878 76.9875199,4.29996879 C77.2371201,4.05452878 77.5408001,3.93180879 77.89856,3.93180879 C78.25632,3.93180879 78.56,4.05452878 78.8096,4.29996879 C79.0592,4.54540878 79.1839999,4.89276879 79.1839999,5.34204878 C79.1839999,5.56668878 79.15072,5.76844877 79.08416,5.94732879 C79.0175999,6.12620878 78.9239999,6.27804878 78.80336,6.40284879 C78.68272,6.52764878 78.54544,6.62332878 78.39152,6.68988878 C78.2375999,6.75644878 78.07328,6.78972877 77.89856,6.78972877 Z M78.04832,11.4822088 C77.4992,11.4822088 77.06864,11.3865288 76.7566401,11.1951688 C76.44464,11.0038088 76.28864,10.7458888 76.28864,10.4214088 C76.28864,10.2466888 76.33856,10.0719688 76.4383999,9.89724878 C76.53824,9.72252879 76.69632,9.55612878 76.91264,9.39804877 C77.0457601,9.43964879 77.18096,9.46668877 77.31824,9.47916878 C77.45552,9.49164879 77.5824,9.49788878 77.69888,9.49788878 L77.69888,9.49788878 L78.7472001,9.49788878 C79.14656,9.49788878 79.45024,9.55196879 79.65824,9.66012878 C79.86624,9.76828878 79.97024,9.96380879 79.97024,10.2466888 C79.97024,10.4047688 79.9244799,10.5586888 79.83296,10.7084488 C79.74144,10.8582088 79.61248,10.9892488 79.44608,11.1015688 C79.27968,11.2138888 79.07792,11.3054088 78.8407999,11.3761288 C78.60368,11.4468488 78.33952,11.4822088 78.04832,11.4822088 Z M87.0089599,9.54780878 C87.4416,9.54780878 87.82848,9.48748878 88.1696,9.36684878 C88.51072,9.24620878 88.80192,9.07980879 89.0432001,8.86764878 C89.28448,8.65548878 89.4696001,8.40796878 89.59856,8.12508878 C89.72752,7.84220878 89.792,7.53852878 89.792,7.21404878 C89.792,6.91452878 89.74832,6.65036878 89.6609601,6.42156878 C89.5736,6.19276878 89.4550401,5.99308878 89.30528,5.82252878 C89.15552,5.65196878 88.97664,5.50220879 88.7686401,5.37324879 C88.56064,5.24428879 88.34016,5.12988878 88.1071999,5.03004879 L88.1071999,5.03004879 L86.94656,4.53084878 C86.78016,4.46428877 86.61792,4.39148878 86.4598399,4.31244878 C86.30176,4.23340878 86.1561599,4.14188878 86.0230401,4.03788878 C85.88992,3.93388878 85.78384,3.81324878 85.7047999,3.67596878 C85.6257601,3.53868878 85.58624,3.37020878 85.58624,3.17052878 C85.58624,2.79612878 85.7256,2.50284878 86.00432,2.29068878 C86.2830401,2.07852879 86.6511999,1.97244878 87.1088,1.97244878 C87.49152,1.97244878 87.83472,2.04108878 88.1384,2.17836878 C88.44208,2.31564878 88.71872,2.50492878 88.96832,2.74620878 L88.96832,2.74620878 L89.52992,2.07228878 C89.23872,1.77276878 88.88512,1.52940879 88.46912,1.34220878 C88.0531199,1.15500878 87.59968,1.06140878 87.1088,1.06140878 C86.7343999,1.06140878 86.3911999,1.11548878 86.0792,1.22364878 C85.7672,1.33180879 85.4968,1.48364878 85.2680001,1.67916878 C85.0392,1.87468878 84.86032,2.10556878 84.73136,2.37180878 C84.6024,2.63804878 84.5379199,2.92508878 84.5379199,3.23292878 C84.5379199,3.53244878 84.58784,3.79660878 84.68768,4.02540879 C84.7875201,4.25420878 84.91648,4.45180878 85.07456,4.61820879 C85.23264,4.78460878 85.41152,4.92604878 85.6112001,5.04252878 C85.81088,5.15900879 86.0064,5.25884878 86.19776,5.34204878 L86.19776,5.34204878 L87.37088,5.85372879 C87.5622401,5.94524878 87.74112,6.03260878 87.90752,6.11580878 C88.07392,6.19900878 88.21744,6.29260878 88.33808,6.39660878 C88.45872,6.50060878 88.5544,6.62540879 88.62512,6.77100879 C88.6958399,6.91660878 88.7312,7.09340878 88.7312,7.30140878 C88.7312,7.70076878 88.58144,8.02316878 88.28192,8.26860878 C87.9824,8.51404877 87.5622401,8.63676878 87.02144,8.63676878 C86.5971199,8.63676878 86.18736,8.54316878 85.79216,8.35596878 C85.39696,8.16876878 85.05376,7.92124879 84.76256,7.61340877 L84.76256,7.61340877 L84.13856,8.33724878 C84.49632,8.71164877 84.9206399,9.00700878 85.41152,9.22332878 C85.9024,9.43964879 86.4348801,9.54780878 87.0089599,9.54780878 Z M93.6608,9.54780878 C94.0352,9.54780878 94.39088,9.47708878 94.72784,9.33564878 C95.0648,9.19420878 95.36224,8.98828878 95.62016,8.71788878 C95.8780799,8.44748878 96.0839999,8.11468878 96.23792,7.71948878 C96.39184,7.32428878 96.4688,6.87708878 96.4688,6.37788877 C96.4688,5.87036879 96.39184,5.41900878 96.23792,5.02380878 C96.0839999,4.62860878 95.8780799,4.29372878 95.62016,4.01916878 C95.36224,3.74460878 95.0648,3.53660879 94.72784,3.39516878 C94.39088,3.25372879 94.0352,3.18300878 93.6608,3.18300878 C93.2864,3.18300878 92.93072,3.25372879 92.59376,3.39516878 C92.2568,3.53660879 91.95936,3.74460878 91.70144,4.01916878 C91.44352,4.29372878 91.2376,4.62860878 91.08368,5.02380878 C90.92976,5.41900878 90.8527999,5.87036879 90.8527999,6.37788877 C90.8527999,6.87708878 90.92976,7.32428878 91.08368,7.71948878 C91.2376,8.11468878 91.44352,8.44748878 91.70144,8.71788878 C91.95936,8.98828878 92.2568,9.19420878 92.59376,9.33564878 C92.93072,9.47708878 93.2864,9.54780878 93.6608,9.54780878 Z M93.6608,8.69916878 C93.40288,8.69916878 93.16576,8.64300877 92.94944,8.53068879 C92.73312,8.41836879 92.548,8.26028878 92.39408,8.05644878 C92.2401599,7.85260879 92.1216,7.60924878 92.0384,7.32636878 C91.9552001,7.04348878 91.9136,6.72732878 91.9136,6.37788877 C91.9136,6.02844878 91.9552001,5.71020878 92.0384,5.42316878 C92.1216,5.13612878 92.2401599,4.88860878 92.39408,4.68060878 C92.548,4.47260879 92.73312,4.31244878 92.94944,4.20012878 C93.16576,4.08780878 93.40288,4.03164878 93.6608,4.03164878 C93.91872,4.03164878 94.15584,4.08780878 94.37216,4.20012878 C94.5884801,4.31244878 94.7736,4.47260879 94.92752,4.68060878 C95.08144,4.88860878 95.2,5.13612878 95.2832,5.42316878 C95.3664,5.71020878 95.408,6.02844878 95.408,6.37788877 C95.408,6.72732878 95.3664,7.04348878 95.2832,7.32636878 C95.2,7.60924878 95.08144,7.85260879 94.92752,8.05644878 C94.7736,8.26028878 94.5884801,8.41836879 94.37216,8.53068879 C94.15584,8.64300877 93.91872,8.69916878 93.6608,8.69916878 Z M99.152,9.54780878 C99.29344,9.54780878 99.40992,9.53948878 99.5014399,9.52284878 C99.59296,9.50620878 99.672,9.48124878 99.73856,9.44796879 L99.73856,9.44796879 L99.60128,8.67420878 C99.54304,8.69084878 99.49936,8.69916878 99.47024,8.69916878 L99.47024,8.69916878 L99.37664,8.69916878 C99.30176,8.69916878 99.2352,8.66588878 99.17696,8.59932879 C99.1187201,8.53276878 99.0895999,8.41628878 99.0895999,8.24988878 L99.0895999,8.24988878 L99.0895999,0.512288781 L98.06624,0.512288781 L98.06624,8.17500878 C98.06624,8.62428879 98.14944,8.96540878 98.31584,9.19836878 C98.48224,9.43132879 98.7609599,9.54780878 99.152,9.54780878 Z M103.0208,9.54780878 C103.44512,9.54780878 103.81328,9.44796879 104.12528,9.24828878 C104.43728,9.04860878 104.73472,8.78236878 105.0176,8.44956878 L105.0176,8.44956878 L105.05504,8.44956878 L105.1424,9.39804877 L105.99104,9.39804877 L105.99104,3.33276878 L104.96768,3.33276878 L104.96768,7.63836879 C104.67648,7.99612878 104.41024,8.25612879 104.16896,8.41836879 C103.92768,8.58060878 103.64896,8.66172878 103.3328,8.66172878 C102.93344,8.66172878 102.64432,8.53484878 102.46544,8.28108879 C102.28656,8.02732878 102.19712,7.61340877 102.19712,7.03932878 L102.19712,7.03932878 L102.19712,3.33276878 L101.16128,3.33276878 L101.16128,7.17660878 C101.16128,7.95868878 101.30896,8.54940878 101.60432,8.94876878 C101.89968,9.34812878 102.37184,9.54780878 103.0208,9.54780878 Z M109.9472,9.54780878 C110.13856,9.54780878 110.332,9.52492878 110.52752,9.47916878 C110.72304,9.43340878 110.904,9.38140878 111.0704,9.32316878 L111.0704,9.32316878 L110.87072,8.54940878 C110.77088,8.59100879 110.65856,8.62844878 110.53376,8.66172878 C110.40896,8.69500878 110.29248,8.71164877 110.18432,8.71164877 C109.83488,8.71164877 109.59152,8.60972878 109.45424,8.40588878 C109.31696,8.20204878 109.24832,7.91292879 109.24832,7.53852878 L109.24832,7.53852878 L109.24832,4.16892878 L110.8832,4.16892878 L110.8832,3.33276878 L109.24832,3.33276878 L109.24832,1.63548878 L108.3872,1.63548878 L108.2624,3.33276878 L107.31392,3.39516878 L107.31392,4.16892878 L108.21248,4.16892878 L108.21248,7.52604879 C108.21248,7.82556878 108.2416,8.10012878 108.29984,8.34972879 C108.35808,8.59932879 108.45584,8.81148878 108.59312,8.98620877 C108.7304,9.16092878 108.90928,9.29820878 109.12976,9.39804877 C109.35024,9.49788878 109.62272,9.54780878 109.9472,9.54780878 Z M112.78016,2.08476878 C112.97984,2.08476878 113.14832,2.02236878 113.2856,1.89756879 C113.42288,1.77276878 113.49152,1.61468879 113.49152,1.42332878 C113.49152,1.22364878 113.42288,1.06348878 113.2856,0.94284878 C113.14832,0.822208781 112.97984,0.76188878 112.78016,0.76188878 C112.58048,0.76188878 112.412,0.822208781 112.27472,0.94284878 C112.13744,1.06348878 112.0688,1.22364878 112.0688,1.42332878 C112.0688,1.61468879 112.13744,1.77276878 112.27472,1.89756879 C112.412,2.02236878 112.58048,2.08476878 112.78016,2.08476878 Z M113.27936,9.39804877 L113.27936,3.33276878 L112.256,3.33276878 L112.256,9.39804877 L113.27936,9.39804877 Z M117.6848,9.54780878 C118.0592,9.54780878 118.41488,9.47708878 118.75184,9.33564878 C119.0888,9.19420878 119.38624,8.98828878 119.64416,8.71788878 C119.90208,8.44748878 120.108,8.11468878 120.26192,7.71948878 C120.41584,7.32428878 120.4928,6.87708878 120.4928,6.37788877 C120.4928,5.87036879 120.41584,5.41900878 120.26192,5.02380878 C120.108,4.62860878 119.90208,4.29372878 119.64416,4.01916878 C119.38624,3.74460878 119.0888,3.53660879 118.75184,3.39516878 C118.41488,3.25372879 118.0592,3.18300878 117.6848,3.18300878 C117.3104,3.18300878 116.95472,3.25372879 116.61776,3.39516878 C116.2808,3.53660879 115.98336,3.74460878 115.72544,4.01916878 C115.46752,4.29372878 115.2616,4.62860878 115.10768,5.02380878 C114.95376,5.41900878 114.8768,5.87036879 114.8768,6.37788877 C114.8768,6.87708878 114.95376,7.32428878 115.10768,7.71948878 C115.2616,8.11468878 115.46752,8.44748878 115.72544,8.71788878 C115.98336,8.98828878 116.2808,9.19420878 116.61776,9.33564878 C116.95472,9.47708878 117.3104,9.54780878 117.6848,9.54780878 Z M117.6848,8.69916878 C117.42688,8.69916878 117.18976,8.64300877 116.97344,8.53068879 C116.75712,8.41836879 116.572,8.26028878 116.41808,8.05644878 C116.26416,7.85260879 116.1456,7.60924878 116.0624,7.32636878 C115.9792,7.04348878 115.9376,6.72732878 115.9376,6.37788877 C115.9376,6.02844878 115.9792,5.71020878 116.0624,5.42316878 C116.1456,5.13612878 116.26416,4.88860878 116.41808,4.68060878 C116.572,4.47260879 116.75712,4.31244878 116.97344,4.20012878 C117.18976,4.08780878 117.42688,4.03164878 117.6848,4.03164878 C117.94272,4.03164878 118.17984,4.08780878 118.39616,4.20012878 C118.61248,4.31244878 118.7976,4.47260879 118.95152,4.68060878 C119.10544,4.88860878 119.224,5.13612878 119.3072,5.42316878 C119.3904,5.71020878 119.432,6.02844878 119.432,6.37788877 C119.432,6.72732878 119.3904,7.04348878 119.3072,7.32636878 C119.224,7.60924878 119.10544,7.85260879 118.95152,8.05644878 C118.7976,8.26028878 118.61248,8.41836879 118.39616,8.53068879 C118.17984,8.64300877 117.94272,8.69916878 117.6848,8.69916878 Z M123.1136,9.39804877 L123.1136,5.00508877 C123.42144,4.69724878 123.696,4.46428877 123.93728,4.30620878 C124.17856,4.14812878 124.45728,4.06908879 124.77344,4.06908879 C125.1728,4.06908879 125.464,4.19596878 125.64704,4.44972878 C125.83008,4.70348879 125.9216,5.11740878 125.9216,5.69148877 L125.9216,5.69148877 L125.9216,9.39804877 L126.94496,9.39804877 L126.94496,5.55420877 C126.94496,4.77212879 126.79728,4.18140877 126.50192,3.78204878 C126.20656,3.38268879 125.73856,3.18300878 125.09792,3.18300878 C124.6736,3.18300878 124.30128,3.28076877 123.98096,3.47628879 C123.66064,3.67180878 123.35488,3.91516877 123.06368,4.20636879 L123.06368,4.20636879 L123.02624,4.20636879 L122.93888,3.33276878 L122.09024,3.33276878 L122.09024,9.39804877 L123.1136,9.39804877 Z M130.50176,9.54780878 C130.85952,9.54780878 131.17776,9.49996879 131.45648,9.40428878 C131.7352,9.30860878 131.968161,9.17756878 132.15536,9.01116879 C132.34256,8.84476878 132.483999,8.65340878 132.57968,8.43708877 C132.67536,8.22076878 132.723201,7.98780878 132.723201,7.73820878 C132.723201,7.45532878 132.66704,7.21404878 132.55472,7.01436878 C132.4424,6.81468879 132.29888,6.64620878 132.12416,6.50892878 C131.94944,6.37164878 131.75184,6.25724879 131.531359,6.16572878 C131.31088,6.07420878 131.092481,5.98684878 130.87616,5.90364878 C130.70144,5.83708877 130.53296,5.77260878 130.37072,5.71020878 C130.20848,5.64780879 130.06496,5.57708878 129.94016,5.49804878 C129.81536,5.41900878 129.71552,5.32748878 129.64064,5.22348878 C129.56576,5.11948878 129.52832,4.99676877 129.52832,4.85532878 C129.52832,4.62236878 129.61776,4.41852878 129.79664,4.24380878 C129.97552,4.06908879 130.25632,3.98172878 130.63904,3.98172878 C130.90528,3.98172878 131.15072,4.03164878 131.37536,4.13148878 C131.599999,4.23132879 131.81632,4.36028879 132.02432,4.51836878 L132.02432,4.51836878 L132.51104,3.86940878 C132.278079,3.67804878 132.00144,3.51580878 131.68112,3.38268879 C131.3608,3.24956878 131.00928,3.18300878 130.62656,3.18300878 C130.30208,3.18300878 130.01088,3.22668878 129.75296,3.31404879 C129.49504,3.40140878 129.27664,3.52204878 129.09776,3.67596878 C128.91888,3.82988877 128.7816,4.01292878 128.68592,4.22508878 C128.59024,4.43724879 128.5424,4.66396878 128.5424,4.90524878 C128.5424,5.16316878 128.59648,5.38364878 128.70464,5.56668878 C128.8128,5.74972878 128.95216,5.90988878 129.12272,6.04716878 C129.29328,6.18444878 129.48672,6.30092877 129.70304,6.39660878 C129.91936,6.49228878 130.13568,6.57756878 130.352,6.65244877 C130.5184,6.71900878 130.6848,6.78556878 130.8512,6.85212878 C131.0176,6.91868877 131.16528,6.99564877 131.29424,7.08300878 C131.4232,7.17036878 131.52928,7.27228878 131.61248,7.38876879 C131.69568,7.50524878 131.737279,7.64252878 131.737279,7.80060879 C131.737279,8.06684879 131.63744,8.29148877 131.43776,8.47452878 C131.23808,8.65756878 130.93856,8.74908878 130.5392,8.74908878 C130.17312,8.74908878 129.85072,8.68252878 129.572,8.54940878 C129.29328,8.41628878 129.0208,8.24156878 128.75456,8.02524877 L128.75456,8.02524877 L128.24288,8.71164877 C128.53408,8.95292878 128.8752,9.15260878 129.26624,9.31068879 C129.65728,9.46876878 130.06912,9.54780878 130.50176,9.54780878 Z M135.2816,6.92700877 L135.41888,2.20956878 L135.443839,1.03644878 L134.408,1.03644878 L134.43296,2.20956878 L134.57024,6.92700877 L135.2816,6.92700877 Z M134.93216,9.54780878 C135.13184,9.54780878 135.30448,9.47500877 135.45008,9.32940877 C135.59568,9.18380877 135.66848,8.99868878 135.66848,8.77404878 C135.66848,8.53276878 135.59568,8.33932878 135.45008,8.19372878 C135.30448,8.04812878 135.13184,7.97532878 134.93216,7.97532878 C134.72416,7.97532878 134.54736,8.04812878 134.40176,8.19372878 C134.25616,8.33932878 134.18336,8.53276878 134.18336,8.77404878 C134.18336,8.99868878 134.25616,9.18380877 134.40176,9.32940877 C134.54736,9.47500877 134.72416,9.54780878 134.93216,9.54780878 Z" id="UX-SimplifyingSolutions!"></path>
            </g>
        </g>
    </g>
</svg>